<?xml version="1.0" encoding="UTF-8"?>
<svg version="1.1" xmlns="http://www.w3.org/2000/svg" width="1250" height="1250">
<path d="M0 0 C0.75474609 0.11375977 1.50949219 0.22751953 2.28710938 0.34472656 C18.00295282 2.82851589 31.89116371 8.2503188 44 19 C44 19.66 44 20.32 44 21 C44.99 21.33 45.98 21.66 47 22 C51 26.45714286 51 26.45714286 51 29 C51.66 29 52.32 29 53 29 C53.04125 29.61875 53.0825 30.2375 53.125 30.875 C53.558125 31.926875 53.558125 31.926875 54 33 C56.99615946 34.3045656 56.99615946 34.3045656 60 35 C60.061875 34.4225 60.12375 33.845 60.1875 33.25 C61.32969203 30.08700669 63.33142373 28.98591723 66 27 C66.721875 26.2575 67.44375 25.515 68.1875 24.75 C70 23 70 23 72 23 C72 22.34 72 21.68 72 21 C73.6796875 19.7109375 73.6796875 19.7109375 75.875 18.375 C76.59429688 17.92898438 77.31359375 17.48296875 78.0546875 17.0234375 C80 16 80 16 82 16 C82 15.34 82 14.68 82 14 C83.98 13.67 85.96 13.34 88 13 C88 12.34 88 11.68 88 11 C88.99 11 89.98 11 91 11 C91.33 10.34 91.66 9.68 92 9 C93.97984481 8.27566653 95.98583438 7.62256028 98 7 C99.7015625 6.2884375 99.7015625 6.2884375 101.4375 5.5625 C107.73091726 3.18445302 114.4045358 2.19492722 121 1 C122.08796875 0.77957031 123.1759375 0.55914062 124.296875 0.33203125 C133.05552814 -1.29115198 141.20144212 -0.86278962 150 0 C150.886875 0.08636719 151.77375 0.17273438 152.6875 0.26171875 C155.61220177 0.58967244 158.1998109 1.06660363 161 2 C162.07507813 2.32355469 163.15015625 2.64710938 164.2578125 2.98046875 C172.05566905 5.38431926 178.40647076 8.07265417 185 13 C186.5159375 13.86625 186.5159375 13.86625 188.0625 14.75 C188.701875 15.1625 189.34125 15.575 190 16 C190 16.66 190 17.32 190 18 C190.99 18 191.98 18 193 18 C195.6875 20.375 195.6875 20.375 198 23 C198 23.66 198 24.32 198 25 C198.99 25.33 199.98 25.66 201 26 C205 30.45714286 205 30.45714286 205 33 C205.66 33 206.32 33 207 33 C208.22264708 34.84722824 209.35379694 36.75547885 210.4375 38.6875 C211.03433594 39.74324219 211.63117188 40.79898438 212.24609375 41.88671875 C213.11427734 43.42779297 213.11427734 43.42779297 214 45 C214.54785156 45.9075 215.09570312 46.815 215.66015625 47.75 C217.07313512 50.12281582 218.03693262 52.41175643 219 55 C219.24878906 55.60972656 219.49757813 56.21945312 219.75390625 56.84765625 C221.51483487 61.26273816 222.50740425 65.27108077 223 70 C223.66 70 224.32 70 225 70 C225.12375 71.299375 225.2475 72.59875 225.375 73.9375 C225.81787356 77.96132259 226.5519391 81.82874736 227.5 85.76171875 C228.60258842 90.69752474 229.12525942 95.38566722 229.12698364 100.44493103 C229.12980347 101.72201431 229.13262329 102.9990976 229.13552856 104.31488037 C229.13358454 105.71765151 229.13153638 107.12042251 229.12939453 108.52319336 C229.13075055 110.01023908 229.13253161 111.49728447 229.13470459 112.98432922 C229.13925546 117.01324946 229.1374989 121.04214403 229.1343255 125.07106471 C229.13178932 129.29319117 229.134143 133.51531547 229.13571167 137.73744202 C229.13752988 144.82813917 229.13513638 151.91882591 229.13037109 159.00952148 C229.12493124 167.19834064 229.12669052 175.38713488 229.1321975 183.57595342 C229.13674103 190.6147689 229.13737303 197.65357689 229.13475883 204.69239336 C229.13320262 208.89276669 229.13298427 213.09312833 229.13629532 217.2935009 C229.13919197 221.24400811 229.13716541 225.19448334 229.13140106 229.14498711 C229.13008299 230.59174039 229.13045134 232.03849638 229.13266373 233.48524857 C229.13541283 235.46619315 229.13134796 237.44714364 229.12698364 239.42808533 C229.12660662 240.53474013 229.12622959 241.64139494 229.12584114 242.78158474 C228.9905056 246.24282132 228.54455475 249.58119612 228 253 C227.34 253 226.68 253 226 253 C225.67 253.99 225.34 254.98 225 256 C221.363416 258.74509408 218.61745468 259.39339714 214.11157227 259.49584961 C212.95009171 259.52855453 211.78861115 259.56125946 210.5919342 259.59495544 C209.34600998 259.61389359 208.10008575 259.63283173 206.81640625 259.65234375 C205.52814438 259.67978165 204.23988251 259.70721954 202.9125824 259.73548889 C200.1900874 259.79126415 197.46768074 259.83594105 194.74487305 259.87329102 C191.26633105 259.92228743 187.78936138 260.00308763 184.31166172 260.09281063 C180.98018573 260.17346002 177.64842713 260.22373855 174.31640625 260.27734375 C173.07250626 260.31045151 171.82860626 260.34355927 170.54701233 260.37767029 C159.8463827 260.47542864 159.8463827 260.47542864 155 256 C154.29950027 255.41546492 153.59900055 254.83092983 152.87727356 254.22868156 C150.45393001 251.35171083 150.51428469 249.83629098 150.54589844 246.10842896 C150.54632141 244.30045082 150.54632141 244.30045082 150.54675293 242.45594788 C150.57775085 240.47672585 150.57775085 240.47672585 150.609375 238.45751953 C150.61705391 237.0511001 150.62290808 235.6446697 150.6270752 234.23823547 C150.63971972 231.20914603 150.66479517 228.18050266 150.69934082 225.15158463 C150.75351949 220.35034816 150.7770293 215.5492594 150.79589844 210.74777222 C150.8440727 199.67569047 150.93193794 188.60399021 151.02081299 177.53217316 C151.10175703 167.40960104 151.17404645 157.28716532 151.21367264 147.16433609 C151.23345927 142.40439929 151.27268528 137.64516078 151.32739258 132.88550305 C151.35753966 129.90319675 151.37055505 126.92098185 151.3792572 123.93854332 C151.3901441 121.92535316 151.42122949 119.91230275 151.45324707 117.89933777 C151.45571313 107.11171299 149.68813908 97.27703438 144 88 C144 87.34 144 86.68 144 86 C143.01 85.67 142.02 85.34 141 85 C138.8125 83.0625 138.8125 83.0625 137 81 C137 80.34 137 79.68 137 79 C136.0925 78.71125 135.185 78.4225 134.25 78.125 C131 77 131 77 129.1484375 75.97265625 C120.94859061 72.26036193 109.48741409 73.72382986 101 76 C101 76.66 101 77.32 101 78 C98.03 78.495 98.03 78.495 95 79 C94.67 79.99 94.34 80.98 94 82 C92.8553125 82.86625 92.8553125 82.86625 91.6875 83.75 C88.48518581 86.43100723 86.87797651 89.36187694 85 93 C84.30933441 94.10102051 83.61866882 95.20204102 82.90707397 96.33642578 C79.92785361 102.36132456 80.47707486 108.79921735 80.54931641 115.3671875 C80.55040631 116.81349667 80.54964914 118.25980822 80.54719543 119.70611572 C80.54541357 122.8076571 80.55570173 125.90883571 80.57527542 129.01031494 C80.60528165 133.91956786 80.60256944 138.82847455 80.59457397 143.73779297 C80.57950804 155.92852143 80.6012165 168.11914987 80.64239502 180.30981445 C80.67436668 189.79192036 80.69357212 199.27362336 80.67088258 208.75577736 C80.66065149 213.63121936 80.67788007 218.50553692 80.71602273 223.38082886 C80.73360933 226.41872022 80.72615052 229.45617909 80.71187401 232.49407196 C80.71029893 233.89689616 80.7189157 235.29977674 80.73877525 236.70246124 C80.84006648 244.26435634 80.6946081 249.71194445 75.58052635 255.55978394 C72.15109507 258.6847695 69.98142619 259.26753774 65.4621582 259.38232422 C63.75942497 259.4314949 63.75942497 259.4314949 62.02229309 259.48165894 C60.79419418 259.50575836 59.56609528 259.52985779 58.30078125 259.5546875 C57.03662888 259.58354034 55.7724765 259.61239319 54.47001648 259.64212036 C51.79091872 259.69924521 49.11213235 259.75182672 46.43286133 259.79785156 C43.01731403 259.85788712 39.60312045 259.94577845 36.18839741 260.04099846 C32.91371981 260.12674596 29.63852198 260.18253204 26.36328125 260.2421875 C25.1453035 260.27843231 23.92732574 260.31467712 22.67243958 260.35202026 C15.61543843 260.4370507 10.94461751 259.93009931 5 256 C1.66187181 250.83128538 0.87257517 246.23717096 0.89320374 240.1819458 C0.89547722 238.39882492 0.89547722 238.39882492 0.89779663 236.5796814 C0.904534 235.27882599 0.91127136 233.97797058 0.91821289 232.63769531 C0.92177007 231.25108956 0.92485577 229.86448254 0.92750549 228.47787476 C0.9340531 225.49316138 0.94361067 222.50847803 0.95540047 219.52378082 C0.97370975 214.79977574 0.98329719 210.07577791 0.99131775 205.35174561 C1.01545502 191.91870939 1.05128104 178.48571748 1.09594727 165.05273438 C1.1205425 157.63273078 1.13787663 150.21274468 1.14750665 142.79270625 C1.15403057 138.10161032 1.1695503 133.41065884 1.19182408 128.7196126 C1.20360183 125.79330174 1.20692427 122.86702542 1.20792198 119.9406929 C1.21107403 117.94791727 1.2242263 115.95516522 1.23773193 113.96243286 C1.22789851 104.91424095 0.31001229 98.08127305 -4 90 C-4.68528045 88.34089996 -5.35891863 86.67667436 -6 85 C-6.66 85 -7.32 85 -8 85 C-8 84.34 -8 83.68 -8 83 C-8.99 82.67 -9.98 82.34 -11 82 C-11.33 81.34 -11.66 80.68 -12 80 C-20.56139423 73.4721911 -30.54600587 73.27932101 -40.8828125 74.55078125 C-43.69125485 75.14666846 -45.67683654 76.34059753 -48 78 C-48.9075 78.350625 -49.815 78.70125 -50.75 79.0625 C-53.16232993 79.77997664 -53.16232993 79.77997664 -54 82 C-54.99 82 -55.98 82 -57 82 C-57 82.66 -57 83.32 -57 84 C-57.7425 84.721875 -58.485 85.44375 -59.25 86.1875 C-62.2088887 89.21363617 -64.15563997 92.23904268 -66 96 C-66.34684121 96.68287771 -66.69368242 97.36575542 -67.05103397 98.0693264 C-70.39107943 105.39947107 -70.51420239 111.98776627 -70.37475586 119.95166016 C-70.36542219 121.32928885 -70.35795274 122.70693122 -70.35218811 124.08457947 C-70.33625626 127.03174704 -70.30801384 129.97843787 -70.27009392 132.92540359 C-70.21083429 137.5910338 -70.18386415 142.2565208 -70.16175842 146.92245483 C-70.10192493 158.50567719 -69.99972663 170.08848157 -69.88983154 181.67132568 C-69.80478925 190.68762847 -69.7313682 199.70371529 -69.69223887 208.72034872 C-69.67082843 213.35331621 -69.62583549 217.98525538 -69.56263149 222.61783242 C-69.52839026 225.50370968 -69.51518929 228.38941009 -69.50763512 231.27546883 C-69.49624069 233.23971159 -69.45973189 235.20375908 -69.42233276 237.16767883 C-69.42905126 244.4411439 -70.12800313 249.42199625 -75 255 C-79.64762738 259.61837402 -84.29048422 259.48814142 -90.5213623 259.55578613 C-92.38250671 259.54364075 -92.38250671 259.54364075 -94.28125 259.53125 C-95.56809692 259.5350769 -96.85494385 259.53890381 -98.18078613 259.54284668 C-100.89757614 259.54872549 -103.61383807 259.54023231 -106.33056641 259.52148438 C-109.80085539 259.49869436 -113.2699068 259.51182635 -116.74015045 259.53577423 C-120.06644767 259.55376143 -123.3924177 259.54114205 -126.71875 259.53125 C-127.95951294 259.53934692 -129.20027588 259.54744385 -130.4786377 259.55578613 C-141.41880843 259.43701559 -141.41880843 259.43701559 -146 255 C-150.88470106 249.69652986 -151.71966465 245.45134045 -151.60800171 238.37078857 C-151.6129794 237.41954015 -151.61795709 236.46829173 -151.62308562 235.48821759 C-151.63363756 232.31036354 -151.6085321 229.13381258 -151.58349609 225.95605469 C-151.58372285 223.6742033 -151.5861379 221.39235123 -151.59057617 219.11050415 C-151.5962808 212.92064497 -151.57099673 206.73125705 -151.53990126 200.54148769 C-151.51235612 194.06732771 -151.5123613 187.59316697 -151.50918579 181.11895752 C-151.49998412 170.25108801 -151.47262106 159.38341775 -151.43212891 148.515625 C-151.3904938 137.33137668 -151.36218543 126.14721104 -151.35009766 114.96289062 C-151.34934944 114.27344292 -151.34860123 113.58399522 -151.34783034 112.87365517 C-151.34485606 110.1024307 -151.34191876 107.3312062 -151.33904406 104.55998163 C-151.32699936 93.2572589 -151.30515953 81.95455258 -151.2814641 70.65184879 C-151.27609867 68.07496976 -151.27096245 65.49809023 -151.26605177 62.92121029 C-151.25176801 55.57957863 -151.23236753 48.23799775 -151.20457458 40.89640427 C-151.19683962 38.66910954 -151.19078364 36.44180828 -151.18649673 34.21450424 C-151.18029925 31.18338982 -151.1679561 28.15236354 -151.15390015 25.12127686 C-151.15340239 24.23209021 -151.15290463 23.34290357 -151.15239179 22.42677188 C-151.13116564 19.03946783 -151.07853761 16.23561282 -150 13 C-149.34 13 -148.68 13 -148 13 C-147.773125 12.236875 -147.54625 11.47375 -147.3125 10.6875 C-145.70107285 7.38791107 -144.27690673 6.56043177 -141 5 C-136.89093195 3.78993553 -132.831552 3.8017204 -128.578125 3.76171875 C-127.75930847 3.753647 -126.94049194 3.74557526 -126.09686279 3.73725891 C-124.36537778 3.72344946 -122.6338659 3.71271331 -120.90234375 3.70483398 C-119.14119425 3.69332426 -117.38007935 3.6728883 -115.61914062 3.64331055 C-113.06356295 3.60041403 -110.50901904 3.58443469 -107.953125 3.57421875 C-106.78707733 3.54795662 -106.78707733 3.54795662 -105.59747314 3.52116394 C-100.05109224 3.54287796 -95.55533522 4.72347808 -91 8 C-88.47663451 11.1128329 -87 13.91098593 -87 18 C-86.34 18.33 -85.68 18.66 -85 19 C-84.58244638 21.31974234 -84.2644354 23.65785793 -84 26 C-83.814375 27.299375 -83.62875 28.59875 -83.4375 29.9375 C-83.2209375 31.4534375 -83.2209375 31.4534375 -83 33 C-82.34 33 -81.68 33 -81 33 C-80.7215625 31.700625 -80.7215625 31.700625 -80.4375 30.375 C-78.7801097 26.48373583 -76.9880593 25.01211107 -73.7421875 22.453125 C-71.7752145 20.91075204 -71.7752145 20.91075204 -69.75 18.1875 C-68 16 -68 16 -65 15 C-64.34 14.34 -63.68 13.68 -63 13 C-57.57795666 9.59153707 -52.02941283 7.11029449 -46 5 C-45.20891846 4.66572998 -44.41783691 4.33145996 -43.6027832 3.98706055 C-30.37955652 -1.02761964 -13.87281453 -2.14499341 0 0 Z " fill="#FE914B" transform="translate(777,409)"/>
<path d="M0 0 C1.77206192 0.00015919 3.54412846 0.00585754 5.31616211 0.01586914 C6.24698105 0.01728409 7.17779999 0.01869904 8.13682556 0.02015686 C11.12241777 0.02577367 14.10793615 0.03832899 17.09350586 0.05102539 C19.11238499 0.05603823 21.13126529 0.06060151 23.15014648 0.06469727 C28.11046158 0.07574856 33.07072118 0.09302444 38.03100586 0.11352539 C38.03100586 0.77352539 38.03100586 1.43352539 38.03100586 2.11352539 C38.97975586 2.21665039 39.92850586 2.31977539 40.90600586 2.42602539 C48.87465681 3.58510189 55.96931722 6.32113705 63.03100586 10.11352539 C63.03100586 10.77352539 63.03100586 11.43352539 63.03100586 12.11352539 C63.57241211 12.19731445 64.11381836 12.28110352 64.67163086 12.36743164 C67.84848409 13.37203258 70.09704089 15.08775472 72.78100586 17.05102539 C73.76584961 17.76129883 74.75069336 18.47157227 75.76538086 19.20336914 C76.51303711 19.8337207 77.26069336 20.46407227 78.03100586 21.11352539 C78.03100586 21.77352539 78.03100586 22.43352539 78.03100586 23.11352539 C80.01100586 24.10352539 80.01100586 24.10352539 82.03100586 25.11352539 C82.03100586 25.77352539 82.03100586 26.43352539 82.03100586 27.11352539 C82.62913086 27.38165039 83.22725586 27.64977539 83.84350586 27.92602539 C86.01417469 29.10438847 87.33917798 30.3441352 89.03100586 32.11352539 C89.25014648 31.31430664 89.46928711 30.51508789 89.69506836 29.69165039 C95.93533475 8.07902047 95.93533475 8.07902047 104.03100586 3.11352539 C111.46647172 1.50979746 119.26663062 1.85676503 126.84350586 1.80102539 C128.14610352 1.77202148 129.44870117 1.74301758 130.79077148 1.71313477 C138.73810503 1.66119141 145.97541726 2.1384459 153.03100586 6.11352539 C155.22695006 8.35019108 156.4870452 10.3450442 158.03100586 13.11352539 C157.70100586 13.77352539 157.37100586 14.43352539 157.03100586 15.11352539 C157.69100586 15.11352539 158.35100586 15.11352539 159.03100586 15.11352539 C159.03100586 91.34352539 159.03100586 167.57352539 159.03100586 246.11352539 C158.37100586 246.11352539 157.71100586 246.11352539 157.03100586 246.11352539 C157.36100586 247.43352539 157.69100586 248.75352539 158.03100586 250.11352539 C157.37100586 250.11352539 156.71100586 250.11352539 156.03100586 250.11352539 C155.74225586 250.71165039 155.45350586 251.30977539 155.15600586 251.92602539 C152.6093085 256.87793692 152.6093085 256.87793692 149.14599609 258.28881836 C143.9016317 259.59364033 138.5599699 259.36017953 133.19116211 259.30883789 C132.06906845 259.306008 130.94697479 259.3031781 129.7908783 259.30026245 C126.22497668 259.28911314 122.65933092 259.2640179 119.09350586 259.23852539 C116.66837929 259.22848882 114.24324877 259.21936415 111.81811523 259.21118164 C105.88899223 259.18919098 99.96001733 259.15576566 94.03100586 259.11352539 C94.03100586 258.45352539 94.03100586 257.79352539 94.03100586 257.11352539 C93.45350586 257.09290039 92.87600586 257.07227539 92.28100586 257.05102539 C88.16931785 255.33782205 86.80906843 250.89479205 85.11303711 247.01196289 C83.66053219 243.37047168 83.03100586 241.14241026 83.03100586 237.11352539 C82.3903418 237.63301758 81.74967773 238.15250977 81.08959961 238.68774414 C57.71487508 257.53383351 34.36497978 265.40942806 4.32446289 263.26489258 C2.50882174 263.14506104 0.68976844 263.07705169 -1.12915039 263.02758789 C-10.13963166 262.66549745 -18.57750684 259.17536147 -26.96899414 256.11352539 C-28.03996338 255.72487305 -28.03996338 255.72487305 -29.13256836 255.32836914 C-38.84649054 251.75230248 -48.41435705 246.94890498 -56.96899414 241.11352539 C-56.96899414 240.45352539 -56.96899414 239.79352539 -56.96899414 239.11352539 C-57.69602539 238.86731445 -58.42305664 238.62110352 -59.17211914 238.36743164 C-68.68752475 234.10144672 -79.03030005 222.63426039 -84.96899414 214.11352539 C-84.96899414 213.45352539 -84.96899414 212.79352539 -84.96899414 212.11352539 C-85.62899414 212.11352539 -86.28899414 212.11352539 -86.96899414 212.11352539 C-88.51977539 209.98852539 -88.51977539 209.98852539 -90.28149414 207.11352539 C-90.9015332 206.10805664 -91.52157227 205.10258789 -92.16040039 204.06665039 C-92.75723633 203.09211914 -93.35407227 202.11758789 -93.96899414 201.11352539 C-94.88515425 199.69653108 -95.80174955 198.27981794 -96.71899414 196.86352539 C-98.85424283 193.41801046 -100.50843193 189.89012196 -101.96899414 186.11352539 C-102.38407227 185.07325195 -102.79915039 184.03297852 -103.22680664 182.96118164 C-105.17316579 178.0174294 -106.99471475 173.34386736 -107.96899414 168.11352539 C-108.45451766 166.56723854 -108.95493528 165.02556137 -109.46899414 163.48852539 C-110.89094402 158.87063963 -111.45950389 154.46888021 -111.75805664 149.65649414 C-111.91037989 147.13741814 -111.91037989 147.13741814 -112.47387695 144.81103516 C-112.99850968 141.95271812 -113.0984392 139.31505692 -113.10180664 136.41040039 C-113.1030957 135.34821289 -113.10438477 134.28602539 -113.10571289 133.19165039 C-113.1018457 132.09336914 -113.09797852 130.99508789 -113.09399414 129.86352539 C-113.09979492 128.19290039 -113.09979492 128.19290039 -113.10571289 126.48852539 C-113.10442383 125.43149414 -113.10313477 124.37446289 -113.10180664 123.28540039 C-113.10067871 122.31699219 -113.09955078 121.34858398 -113.09838867 120.35083008 C-112.96899414 118.11352539 -112.96899414 118.11352539 -111.96899414 117.11352539 C-111.80888372 114.92831467 -111.69148485 112.73992393 -111.59399414 110.55102539 C-111.2262216 104.70818748 -110.25612922 100.45017391 -107.96899414 95.11352539 C-107.82719727 94.17508789 -107.68540039 93.23665039 -107.53930664 92.26977539 C-106.4916233 86.47163743 -103.52972829 81.37917916 -100.96899414 76.11352539 C-100.41727539 74.94692383 -99.86555664 73.78032227 -99.29711914 72.57836914 C-95.50134271 64.71693309 -91.43028594 56.96838819 -85.96899414 50.11352539 C-85.30899414 50.11352539 -84.64899414 50.11352539 -83.96899414 50.11352539 C-83.72793945 49.55536133 -83.48688477 48.99719727 -83.23852539 48.42211914 C-79.64902871 41.89475748 -73.34684216 36.20832877 -67.96899414 31.11352539 C-67.02024414 30.20602539 -66.07149414 29.29852539 -65.09399414 28.36352539 C-58.79925392 23.00392396 -51.04297334 18.59527066 -43.63696289 14.97290039 C-41.7710682 14.11874766 -41.7710682 14.11874766 -39.96899414 12.11352539 C-37.88661015 11.22716276 -35.77802932 10.40159282 -33.65649414 9.61352539 C-32.52598633 9.19071289 -31.39547852 8.76790039 -30.23071289 8.33227539 C-29.1543457 7.93008789 -28.07797852 7.52790039 -26.96899414 7.11352539 C-26.1865332 6.77450195 -25.40407227 6.43547852 -24.59790039 6.08618164 C-20.88387035 4.71204571 -17.08045645 3.90731931 -13.21899414 3.05102539 C-8.63852694 2.03272318 -4.4897397 0.12842031 0 0 Z M-10.96899414 77.11352539 C-11.85586914 77.54665039 -12.74274414 77.97977539 -13.65649414 78.42602539 C-18.49085323 81.95380094 -22.49204414 86.6593547 -24.96899414 92.11352539 C-25.62899414 92.11352539 -26.28899414 92.11352539 -26.96899414 92.11352539 C-28.28645748 94.69443306 -29.59809032 97.27802997 -30.90649414 99.86352539 C-31.27967773 100.59313477 -31.65286133 101.32274414 -32.03735352 102.07446289 C-32.39506836 102.78344727 -32.7527832 103.49243164 -33.12133789 104.22290039 C-33.45125732 104.87226563 -33.78117676 105.52163086 -34.12109375 106.19067383 C-34.98812359 108.15690676 -35.50328241 110.01900193 -35.96899414 112.11352539 C-36.22938477 113.13961914 -36.48977539 114.16571289 -36.75805664 115.22290039 C-39.38612182 126.66849267 -40.44196963 139.43108667 -35.96899414 150.61352539 C-34.96899414 153.11352539 -34.96899414 153.11352539 -34.53149414 155.61352539 C-33.86254933 158.58661344 -32.59758712 160.54535954 -30.96899414 163.11352539 C-29.95340013 165.1056521 -28.95109785 167.10467689 -27.96899414 169.11352539 C-27.63899414 169.77352539 -27.30899414 170.43352539 -26.96899414 171.11352539 C-26.30899414 171.11352539 -25.64899414 171.11352539 -24.96899414 171.11352539 C-24.90711914 171.71165039 -24.84524414 172.30977539 -24.78149414 172.92602539 C-23.63627545 176.00930647 -21.79484467 176.5079285 -18.96899414 178.11352539 C-17.30232747 179.78019206 -15.63566081 181.44685872 -13.96899414 183.11352539 C-13.30899414 183.11352539 -12.64899414 183.11352539 -11.96899414 183.11352539 C-11.96899414 183.77352539 -11.96899414 184.43352539 -11.96899414 185.11352539 C-10.41047659 185.93363851 -8.84697698 186.74428752 -7.28149414 187.55102539 C-6.41137695 188.00348633 -5.54125977 188.45594727 -4.64477539 188.92211914 C-2.01818129 190.09162454 0.21231782 190.61064102 3.03100586 191.11352539 C4.13444336 191.45641602 5.23788086 191.79930664 6.37475586 192.15258789 C21.55941286 196.14342723 37.74568281 191.7408638 51.03100586 184.11352539 C51.03100586 183.45352539 51.03100586 182.79352539 51.03100586 182.11352539 C51.71163086 181.88665039 52.39225586 181.65977539 53.09350586 181.42602539 C59.94207829 178.36602494 63.71774295 174.58536746 67.96850586 168.48852539 C68.37037109 167.91384521 68.77223633 167.33916504 69.1862793 166.74707031 C71.53675207 163.24696145 71.53675207 163.24696145 72.03100586 159.11352539 C72.69100586 159.11352539 73.35100586 159.11352539 74.03100586 159.11352539 C74.31975586 158.22665039 74.60850586 157.33977539 74.90600586 156.42602539 C76.03100586 153.11352539 76.03100586 153.11352539 77.21850586 150.67602539 C78.30600295 147.24622688 77.7146166 144.59994019 77.03100586 141.11352539 C77.69100586 141.11352539 78.35100586 141.11352539 79.03100586 141.11352539 C79.05795596 138.1759642 79.0778206 135.23864984 79.09350586 132.30102539 C79.10607422 131.05095703 79.10607422 131.05095703 79.11889648 129.77563477 C79.12373047 128.57197266 79.12373047 128.57197266 79.12866211 127.34399414 C79.13651733 126.23640747 79.13651733 126.23640747 79.14453125 125.10644531 C79.10623799 122.9029513 79.10623799 122.9029513 78.03100586 120.11352539 C77.92788086 119.10290039 77.82475586 118.09227539 77.71850586 117.05102539 C75.27212673 103.03994494 66.99295739 91.76769765 56.03100586 83.11352539 C55.49475586 82.53602539 54.95850586 81.95852539 54.40600586 81.36352539 C52.97074559 79.77718899 52.97074559 79.77718899 50.03100586 80.11352539 C50.03100586 79.45352539 50.03100586 78.79352539 50.03100586 78.11352539 C44.47903082 75.18612037 39.03977706 72.91516684 33.03100586 71.11352539 C31.94432617 70.76161133 30.85764648 70.40969727 29.73803711 70.04711914 C15.26002883 66.40091895 1.76623914 70.13118437 -10.96899414 77.11352539 Z " fill="#FE914C" transform="translate(423.968994140625,406.886474609375)"/>
<path d="M0 0 C1.63715926 0.37361479 3.28393448 0.70742601 4.9375 1 C16.42360623 3.21276458 26.63964634 8.74351942 37 14 C38.45212891 14.69029297 38.45212891 14.69029297 39.93359375 15.39453125 C43.10508184 17.05501737 45.87267459 18.93629959 48.75 21.0625 C49.69359375 21.75472656 50.6371875 22.44695312 51.609375 23.16015625 C55.87805 26.44536201 55.87805 26.44536201 56.40625 28.84765625 C56.70238317 35.84380236 54.1173875 39.55578175 50 45 C49.4225 46.010625 48.845 47.02125 48.25 48.0625 C47.8375 48.701875 47.425 49.34125 47 50 C46.34 50 45.68 50 45 50 C44.71125 50.5775 44.4225 51.155 44.125 51.75 C43.08333333 53.83333333 42.04166667 55.91666667 41 58 C40.34 58 39.68 58 39 58 C38.8453125 59.1446875 38.8453125 59.1446875 38.6875 60.3125 C37.9472899 63.20604856 37.29010706 64.16791435 35 66 C34.01 66.495 34.01 66.495 33 67 C31.69364726 69.30532837 30.84142926 71.47571223 30 74 C29.34 74 28.68 74 28 74 C28 74.66 28 75.32 28 76 C27.34 76 26.68 76 26 76 C25.814375 76.86625 25.814375 76.86625 25.625 77.75 C24.99351176 80.02335767 24.11141809 81.9253529 23 84 C22.34 84 21.68 84 21 84 C20.814375 84.639375 20.62875 85.27875 20.4375 85.9375 C19 88 19 88 15.75 88.9375 C11.32960075 89.01117332 9.53198359 88.66860983 6 86 C4.73902125 83.70129775 3.76658624 81.41995744 2.859375 78.9609375 C2.16956831 76.81824135 2.16956831 76.81824135 0 76 C0 75.34 0 74.68 0 74 C-0.62648438 73.93941406 -1.25296875 73.87882812 -1.8984375 73.81640625 C-3.12433594 73.69072266 -3.12433594 73.69072266 -4.375 73.5625 C-5.59316406 73.44068359 -5.59316406 73.44068359 -6.8359375 73.31640625 C-9 73 -9 73 -11 72 C-11.433125 71.236875 -11.86625 70.47375 -12.3125 69.6875 C-14.17347999 66.72371705 -16.26861876 65.14081233 -19 63 C-19 62.34 -19 61.68 -19 61 C-26.91898672 59.71281488 -33.60290854 59.98791938 -41.375 61.75 C-42.12313965 61.91918945 -42.8712793 62.08837891 -43.64208984 62.26269531 C-52.82558396 64.38293929 -52.82558396 64.38293929 -60 70 C-60.33 70.99 -60.66 71.98 -61 73 C-61.66 73 -62.32 73 -63 73 C-63.495 74.485 -63.495 74.485 -64 76 C-64.7734375 76.09796875 -65.546875 76.1959375 -66.34375 76.296875 C-77.78812589 77.93861662 -77.78812589 77.93861662 -86.375 85.0625 C-86.91125 86.031875 -87.4475 87.00125 -88 88 C-88.66 88.99 -89.32 89.98 -90 91 C-90.185625 92.1446875 -90.185625 92.1446875 -90.375 93.3125 C-91.22708235 96.97645411 -92.54099762 99.15273408 -95 102 C-98.75 102.875 -98.75 102.875 -102 103 C-102 103.66 -102 104.32 -102 105 C-102.46277344 105.44085938 -102.92554688 105.88171875 -103.40234375 106.3359375 C-105.33311204 108.34695778 -105.75773438 109.9705375 -106.5625 112.625 C-108.67227753 118.23471856 -112.06533456 121.17881691 -116.5859375 124.97265625 C-120.33268206 128.11919416 -123.3559653 130.97589095 -124.875 135.75 C-125.10266055 141.66917422 -125.16123656 147.81557203 -122 153 C-120.11683841 154.10836423 -120.11683841 154.10836423 -118 155 C-115.87890625 156.2578125 -115.87890625 156.2578125 -114 158 C-113.64453125 160.26953125 -113.64453125 160.26953125 -113.8125 162.8125 C-113.8434375 163.69808594 -113.874375 164.58367187 -113.90625 165.49609375 C-113.9371875 166.32238281 -113.968125 167.14867187 -114 168 C-113.76767838 172.18178924 -113.62707789 173.40507995 -110.5625 176.3125 C-108.14613558 177.97627669 -108.14613558 177.97627669 -106 179 C-104.95346427 184.23267865 -105.04395195 189.17277242 -105.1875 194.5 C-105.25843429 200.9743657 -104.35779655 204.54358061 -101 210 C-101 210.99 -101 211.98 -101 213 C-100.01 213.33 -99.02 213.66 -98 214 C-98 214.66 -98 215.32 -98 216 C-89.9413794 220.3022253 -81.74766596 220.20711565 -72.84179688 219.83398438 C-67.69355508 219.71328994 -64.55039 220.31766484 -60 223 C-58.01014051 223.38932033 -56.00800456 223.71887936 -54 224 C-51.3202923 224.62138149 -48.66353687 225.31115426 -46 226 C-46 226.66 -46 227.32 -46 228 C-43.03 228.99 -43.03 228.99 -40 230 C-40 230.66 -40 231.32 -40 232 C-31.45396504 235.10764908 -22.55622664 234.97607883 -14 232 C-13.34 232 -12.68 232 -12 232 C-12 232.66 -12 233.32 -12 234 C-10.58376784 234.05447047 -9.16691809 234.09300508 -7.75 234.125 C-6.96109375 234.14820313 -6.1721875 234.17140625 -5.359375 234.1953125 C-1.70876522 233.8931097 0.35192778 232.66967463 2.875 230.0625 C5.68177449 227.3382777 8.97172487 225 13 225 C13.33 224.01 13.66 223.02 14 222 C15.30144802 220.95884159 16.63838689 219.96113866 18 219 C18.495 218.4225 18.99 217.845 19.5 217.25 C20.2425 216.63125 20.2425 216.63125 21 216 C23.1875 216.3125 23.1875 216.3125 25 217 C25 217.66 25 218.32 25 219 C25.66 219.33 26.32 219.66 27 220 C28.65205959 222.01120298 30.03029936 224.05164065 31.34765625 226.296875 C33.09403953 229.15384245 35.00578227 231.81082761 37 234.5 C40.67797428 239.45969259 43.84247982 244.19129182 46 250 C46.66 250 47.32 250 48 250 C48 250.66 48 251.32 48 252 C48.66 252.33 49.32 252.66 50 253 C50.66666667 254.66666667 51.33333333 256.33333333 52 258 C52.66 258.33 53.32 258.66 54 259 C56.73679507 264.06813903 57.62760703 267.24912181 56 273 C53.51820404 276.19088052 50.56248447 278.12500818 47 280 C46.34 280 45.68 280 45 280 C44.67 280.66 44.34 281.32 44 282 C43.01 282 42.02 282 41 282 C41 282.66 41 283.32 41 284 C34.4679803 286.88916256 34.4679803 286.88916256 31.625 287.5625 C31.08875 287.706875 30.5525 287.85125 30 288 C29.67 288.66 29.34 289.32 29 290 C28.34 289.67 27.68 289.34 27 289 C27 289.66 27 290.32 27 291 C22.3047776 292.93332687 17.57371606 294.55460866 12.6875 295.9375 C9.91023331 296.73772939 7.22394297 297.60981366 4.5 298.5625 C0.67035288 299.85411792 -2.97908136 300.50620297 -7 301 C-8.54244553 301.32955886 -10.08334961 301.66637598 -11.62304688 302.00854492 C-16.65962691 303.02593913 -21.46677376 303.30652286 -26.59375 303.30078125 C-27.46592163 303.30506638 -28.33809326 303.3093515 -29.23669434 303.31376648 C-31.06517678 303.31946285 -32.89368187 303.3200451 -34.72216797 303.31567383 C-37.49356209 303.31250736 -40.26389297 303.33605452 -43.03515625 303.36132812 C-59.12342402 303.41717068 -59.12342402 303.41717068 -66.03271484 300.71240234 C-69.58371722 299.42649704 -73.25548314 299.30197717 -77 299 C-77 298.34 -77 297.68 -77 297 C-77.912052 296.85304688 -77.912052 296.85304688 -78.8425293 296.703125 C-85.25778523 295.56055567 -90.87226109 293.64223358 -96.8125 291 C-98.44392359 290.2914667 -100.07543149 289.58312751 -101.70703125 288.875 C-102.45291504 288.54757812 -103.19879883 288.22015625 -103.96728516 287.8828125 C-106.29280711 286.87283323 -108.63751755 285.9200743 -111 285 C-111 284.34 -111 283.68 -111 283 C-111.71929687 282.74347656 -112.43859375 282.48695313 -113.1796875 282.22265625 C-116.16413148 280.92884605 -118.50443437 279.35684394 -121.125 277.4375 C-123.83500053 275.45648138 -125.8038487 274.06538377 -129 273 C-129 272.34 -129 271.68 -129 271 C-129.52207031 270.79246094 -130.04414063 270.58492187 -130.58203125 270.37109375 C-134.05467257 268.40195465 -136.77635272 265.77376784 -139.6875 263.0625 C-140.28111328 262.52431641 -140.87472656 261.98613281 -141.48632812 261.43164062 C-145.87584564 257.37246308 -145.87584564 257.37246308 -147 254 C-148.31495866 253.29778497 -149.65055244 252.63341416 -151 252 C-156.78891692 245.94183113 -161.32506906 238.92739767 -166 232 C-166.67933594 231.01257813 -167.35867187 230.02515625 -168.05859375 229.0078125 C-175.95386943 216.77569525 -181.0208622 202.92698231 -185 189 C-185.33 188.01 -185.66 187.02 -186 186 C-186.23755453 184.13350016 -186.4709817 182.2663722 -186.68237305 180.39672852 C-187.02516341 177.81012357 -187.52518223 175.27667522 -188.01953125 172.71484375 C-189.17282696 165.8396084 -189.30329153 159.03393952 -189.26074219 152.08203125 C-189.25001191 150.00230778 -189.26070865 147.92344766 -189.2734375 145.84375 C-189.28021213 138.59048234 -188.85911428 131.64365117 -187.46533203 124.51416016 C-187.02279494 122.12315964 -186.78276659 119.79940248 -186.625 117.375 C-186.19342825 112.98735392 -184.69759348 109.28016747 -182.9375 105.26171875 C-182.06997272 103.16880918 -181.54293097 101.19276771 -181 99 C-174.5848836 81.70947167 -165.67780791 63.5686809 -153 50 C-152.34 50 -151.68 50 -151 50 C-150.9071875 49.13375 -150.9071875 49.13375 -150.8125 48.25 C-149.6716636 45.09076075 -147.64391431 44.05637779 -145 42 C-143.9769799 40.85346566 -142.97797293 39.685192 -142 38.5 C-139.57660004 35.59566757 -137.12719612 33.17166397 -134 31 C-133.34 31 -132.68 31 -132 31 C-132 30.34 -132 29.68 -132 29 C-131.34 29 -130.68 29 -130 29 C-130 28.34 -130 27.68 -130 27 C-123.25 23 -123.25 23 -121 23 C-121 22.34 -121 21.68 -121 21 C-112.98357485 16.29887834 -104.96105217 11.7870009 -96.4375 8.0625 C-95.79619141 7.78075928 -95.15488281 7.49901855 -94.49414062 7.20874023 C-90.40002785 5.46319241 -86.27487233 4.2148567 -82 3 C-81.30261719 2.649375 -80.60523438 2.29875 -79.88671875 1.9375 C-77.54636387 0.77459074 -75.38927464 0.41644843 -72.8125 0 C-69.46325603 -0.54921717 -66.18698461 -1.19843278 -62.89257812 -2.00488281 C-58.09921194 -3.07325763 -53.4728875 -3.37693408 -48.57421875 -3.484375 C-47.2709539 -3.52053925 -47.2709539 -3.52053925 -45.94136047 -3.55743408 C-44.11539672 -3.60540248 -42.28930937 -3.64886174 -40.46313477 -3.68798828 C-37.70461871 -3.74961754 -34.94733391 -3.83289906 -32.18945312 -3.91796875 C-21.03449319 -4.21457156 -10.48339663 -4.31759335 0 0 Z " fill="#FE914C" transform="translate(257,388)"/>
<path d="M0 0 C1.26650391 -0.00386719 2.53300781 -0.00773438 3.83789062 -0.01171875 C5.14822266 -0.00011719 6.45855469 0.01148438 7.80859375 0.0234375 C9.12279297 0.01183594 10.43699219 0.00023437 11.79101562 -0.01171875 C13.68883789 -0.00591797 13.68883789 -0.00591797 15.625 0 C16.77556885 0.00338379 17.9261377 0.00676758 19.11157227 0.01025391 C22.60002896 0.44226934 24.45218761 1.29768661 27.24609375 3.3984375 C29.72697526 7.11975976 29.45880647 8.90999886 29.38134766 13.34838867 C29.37188614 14.05108383 29.36242462 14.75377899 29.35267639 15.47776794 C29.31901182 17.79924619 29.27089381 20.12018886 29.22265625 22.44140625 C29.19648772 24.05136213 29.17122082 25.66133289 29.14682007 27.27131653 C29.08018267 31.5080347 29.00128707 35.74443968 28.91986084 39.980896 C28.83892742 44.30419903 28.76955563 48.62768575 28.69921875 52.95117188 C28.55950982 61.43381673 28.40685397 69.91616561 28.24609375 78.3984375 C29.372505 77.46838356 30.49394113 76.53230225 31.61328125 75.59375 C32.23831543 75.07312988 32.86334961 74.55250977 33.50732422 74.01611328 C35.90355473 71.78676431 37.46454136 69.13015116 39.24609375 66.3984375 C40.90879662 65.06016446 42.57525556 63.72653965 44.24609375 62.3984375 C45.26475604 60.74311127 46.26420188 59.07583612 47.24609375 57.3984375 C48.8694918 55.68959745 50.53928428 54.02397033 52.24609375 52.3984375 C55.68703219 49.04572825 58.80915416 45.59030835 61.81640625 41.8515625 C64.76599275 38.85362212 68.33961942 39.2675136 72.30273438 39.23384094 C73.10904297 39.23272812 73.91535156 39.2316153 74.74609375 39.23046875 C75.99422852 39.22547615 75.99422852 39.22547615 77.26757812 39.22038269 C79.02603605 39.21532242 80.78450356 39.21297409 82.54296875 39.21313477 C85.23583723 39.21094584 87.92829762 39.19277415 90.62109375 39.17382812 C92.32942568 39.17089453 94.03775956 39.16890951 95.74609375 39.16796875 C96.55240234 39.16078323 97.35871094 39.15359772 98.18945312 39.14619446 C102.06720817 39.16208306 103.94436818 39.19728712 107.24609375 41.3984375 C107.85324457 44.83895883 107.97085008 47.23882738 106.07421875 50.2734375 C103.76858848 53.03068607 101.38076396 55.29195407 98.55859375 57.5234375 C96.13180476 59.26807473 96.13180476 59.26807473 94.80859375 61.8359375 C93.17936175 64.50787799 91.35947969 66.03347873 88.91796875 67.94921875 C86.9866978 69.62328772 85.39869983 71.44967856 83.74609375 73.3984375 C80.84208057 76.81192668 77.69237773 79.52653418 74.24609375 82.3984375 C69.36077125 87.33666916 69.36077125 87.33666916 66.24609375 93.3984375 C67.60382226 95.94878232 67.60382226 95.94878232 69.55859375 98.5234375 C70.19410156 99.41289063 70.82960938 100.30234375 71.484375 101.21875 C73.06256764 103.4793858 73.06256764 103.4793858 75.24609375 104.3984375 C75.57609375 105.3884375 75.90609375 106.3784375 76.24609375 107.3984375 C76.90609375 107.7284375 77.56609375 108.0584375 78.24609375 108.3984375 C78.57609375 109.3884375 78.90609375 110.3784375 79.24609375 111.3984375 C79.90609375 111.7284375 80.56609375 112.0584375 81.24609375 112.3984375 C81.24609375 113.3884375 81.24609375 114.3784375 81.24609375 115.3984375 C81.90609375 115.3984375 82.56609375 115.3984375 83.24609375 115.3984375 C84.2817516 116.70426697 85.27736343 118.04221505 86.24609375 119.3984375 C86.72046875 119.8315625 87.19484375 120.2646875 87.68359375 120.7109375 C89.24609375 122.3984375 89.24609375 122.3984375 90.80859375 125.3359375 C93.08594289 129.45931966 96.0582159 132.89821718 99.09741211 136.47973633 C102.59524259 140.60444571 106.01075373 144.78586726 109.37109375 149.0234375 C110.09921265 149.92944702 110.09921265 149.92944702 110.84204102 150.85375977 C114.24609375 155.16441022 114.24609375 155.16441022 114.24609375 157.3984375 C114.90609375 157.3984375 115.56609375 157.3984375 116.24609375 157.3984375 C120.24609375 163.1584375 120.24609375 163.1584375 120.24609375 166.3984375 C118.27080301 169.00527039 116.64398817 171.05800356 113.35839844 171.8581543 C111.09800916 172.02644181 108.88729962 172.03923636 106.62109375 171.9921875 C105.79657715 171.99222778 104.97206055 171.99226807 104.12255859 171.99230957 C102.3843623 171.98696305 100.64616592 171.96941721 98.90820312 171.94042969 C96.25445322 171.89856936 93.60324327 171.8993641 90.94921875 171.90625 C89.25649286 171.89575657 87.56378 171.88281764 85.87109375 171.8671875 C85.08138184 171.86698608 84.29166992 171.86678467 83.47802734 171.86657715 C78.89763019 171.76865244 75.90008589 171.21641629 72.24609375 168.3984375 C70.6015625 166.46484375 70.6015625 166.46484375 69.24609375 164.3984375 C68.80910156 163.74746094 68.37210938 163.09648438 67.921875 162.42578125 C67.47199219 161.73613281 67.02210938 161.04648437 66.55859375 160.3359375 C63.47150836 155.65476519 60.15204947 151.16647966 56.78515625 146.68359375 C55.24609375 144.3984375 55.24609375 144.3984375 55.24609375 142.3984375 C54.58609375 142.3984375 53.92609375 142.3984375 53.24609375 142.3984375 C52.26953125 140.640625 51.29296875 138.8828125 50.31640625 137.125 C49.23712101 135.2371761 49.23712101 135.2371761 47.24609375 133.3984375 C47.24609375 132.4084375 47.24609375 131.4184375 47.24609375 130.3984375 C46.58609375 130.3984375 45.92609375 130.3984375 45.24609375 130.3984375 C43.33398762 127.87301431 41.63872592 125.23465607 39.90234375 122.5859375 C39.35578125 121.8640625 38.80921875 121.1421875 38.24609375 120.3984375 C37.58609375 120.3984375 36.92609375 120.3984375 36.24609375 120.3984375 C35.75109375 121.8834375 35.75109375 121.8834375 35.24609375 123.3984375 C33.74284546 124.47653687 33.74284546 124.47653687 32.20922852 125.57641602 C29.34925403 127.8715008 29.27054233 128.24499167 28.64428711 132.17553711 C28.67882892 133.63494159 28.74443478 135.09383862 28.8359375 136.55078125 C28.85628555 137.32853409 28.87663361 138.10628693 28.89759827 138.90760803 C28.96406758 141.38567521 29.06962147 143.85963079 29.18359375 146.3359375 C29.2923348 148.80853049 29.39151934 151.27947007 29.45887756 153.7535553 C29.50089375 155.28928613 29.56629084 156.82461385 29.65867615 158.35813904 C29.76911617 162.29694104 29.33505148 164.80296356 26.91625977 167.85375977 C21.53950587 172.9778254 14.4664957 171.69572588 7.43359375 171.7734375 C6.16193359 171.81082031 4.89027344 171.84820313 3.58007812 171.88671875 C2.34966797 171.89832031 1.11925781 171.90992188 -0.1484375 171.921875 C-1.27096924 171.94169434 -2.39350098 171.96151367 -3.55004883 171.98193359 C-6.7899721 171.39186908 -8.9974694 170.64052985 -11.48499966 168.44200516 C-14.56639644 163.47943121 -13.51846985 156.55169097 -13.43505859 150.86791992 C-13.43336564 149.26129215 -13.43431715 147.65465974 -13.43771362 146.04803467 C-13.43943489 141.69062446 -13.40416448 137.33420559 -13.36226988 132.97702575 C-13.3247573 128.42201628 -13.32123712 123.86698397 -13.31411743 119.31184387 C-13.29547009 110.6880032 -13.2462347 102.06461899 -13.18602049 93.4409793 C-13.1189518 83.6224932 -13.08596547 73.80398528 -13.05584788 63.98532712 C-12.99313546 43.78944249 -12.88760267 23.59396875 -12.75390625 3.3984375 C-8.20746473 0.99881435 -5.16797858 0.01518399 0 0 Z " fill="#FE924B" transform="translate(745.75390625,688.6015625)"/>
<path d="M0 0 C1.02029297 -0.01611328 2.04058594 -0.03222656 3.09179688 -0.04882812 C9.1688533 -0.05275641 13.26885632 0.59974429 18.6875 3.3125 C19.96947266 3.56193359 19.96947266 3.56193359 21.27734375 3.81640625 C24.31242743 4.44113174 26.56166536 5.72075262 29.25 7.25 C33.05631248 9.4133383 33.05631248 9.4133383 36.96484375 11.37890625 C38.6875 12.3125 38.6875 12.3125 39.6875 14.3125 C40.6775 14.6425 41.6675 14.9725 42.6875 15.3125 C43.93758264 16.75996411 45.18196991 18.2138047 46.3671875 19.71484375 C47.79548556 21.51545542 47.79548556 21.51545542 50.1875 23.625 C52.93257767 26.5759585 54.62976155 29.50553615 56.4921875 33.0546875 C57.54296946 35.03949787 58.6818318 36.91226917 59.875 38.8125 C61.67550865 42.28934429 62.50969757 45.19104771 63.1953125 49.00390625 C63.65381122 51.42714131 63.65381122 51.42714131 64.71875 54.09375 C66.75592643 60.86243297 67.18841776 71.02979529 64.5 77.6875 C58.34172265 83.43522552 49.01946748 82.41177287 41.015625 82.37890625 C40.25810944 82.37729492 39.50059387 82.37568359 38.72012329 82.37402344 C26.49954464 82.32242247 14.280564 82.04837607 2.0625 81.8125 C-0.50520544 81.76416901 -3.07291376 81.71599083 -5.640625 81.66796875 C-11.8646176 81.55123844 -18.08857216 81.43263105 -24.3125 81.3125 C-23.9825 83.2925 -23.6525 85.2725 -23.3125 87.3125 C-22.6525 87.3125 -21.9925 87.3125 -21.3125 87.3125 C-21.3125 88.6325 -21.3125 89.9525 -21.3125 91.3125 C-20.6525 91.3125 -19.9925 91.3125 -19.3125 91.3125 C-18.631875 92.055 -17.95125 92.7975 -17.25 93.5625 C-13.18249518 97.83641551 -6.26164738 100.89254977 -0.40234375 101.515625 C7.18668842 101.68090338 13.72704972 99.67462012 20.625 96.625 C23.6875 95.3125 23.6875 95.3125 26.6875 95.3125 C26.97625 94.673125 27.265 94.03375 27.5625 93.375 C28.6875 91.3125 28.6875 91.3125 30.6875 90.3125 C33.79571606 89.72045885 35.83030978 89.76931209 38.54296875 91.48828125 C53.05107427 103.62180662 53.05107427 103.62180662 54.109375 111.421875 C53.65046473 114.56626018 53.08515889 115.71944143 50.9375 118 C50.3909375 118.58265625 49.844375 119.1653125 49.28125 119.765625 C44.59659091 124.3125 44.59659091 124.3125 41.6875 124.3125 C41.3575 124.9725 41.0275 125.6325 40.6875 126.3125 C32.67160457 131.8570917 24.05665661 134.20281693 14.6875 136.3125 C13.86507812 136.50714844 13.04265625 136.70179688 12.1953125 136.90234375 C3.03705687 138.4001893 -5.77328642 137.84837731 -14.3125 134.3125 C-16.7276938 133.47490754 -19.1444785 132.6418939 -21.5625 131.8125 C-29.20953704 129.16152716 -34.95540264 125.18670446 -41.3125 120.3125 C-42.240625 119.631875 -43.16875 118.95125 -44.125 118.25 C-46.50826382 116.13910919 -47.7568774 114.0701946 -49.3125 111.3125 C-50.2918879 110.29230427 -51.29145449 109.29100195 -52.3125 108.3125 C-55.3125 104.64583333 -55.3125 104.64583333 -55.3125 102.3125 C-55.9725 101.9825 -56.6325 101.6525 -57.3125 101.3125 C-59.87034896 97.01531375 -60.81687849 93.26871512 -61.3125 88.3125 C-61.9725 88.3125 -62.6325 88.3125 -63.3125 88.3125 C-65.10576155 82.59608398 -64.57621974 76.3959409 -64.60766602 70.4609375 C-64.61914083 68.9559587 -64.63952103 67.45101915 -64.66918945 65.94628906 C-64.84584593 56.9733243 -64.50112993 49.46677957 -60.3125 41.3125 C-59.76385858 39.96114411 -59.22157972 38.60717685 -58.6875 37.25 C-57.3125 34.3125 -57.3125 34.3125 -55.3125 33.3125 C-54.00614726 31.00717163 -53.15392926 28.83678777 -52.3125 26.3125 C-51.6525 26.3125 -50.9925 26.3125 -50.3125 26.3125 C-50.03277344 25.72082031 -49.75304687 25.12914062 -49.46484375 24.51953125 C-43.91584859 13.89179476 -32.01037978 7.76838314 -21.3125 3.3125 C-17.9375 2.625 -17.9375 2.625 -15.3125 2.3125 C-14.70510986 1.9822583 -14.09771973 1.6520166 -13.47192383 1.31176758 C-9.28749106 -0.62456745 -4.53434827 -0.01416099 0 0 Z M-18.3125 43.3125 C-18.3125 43.9725 -18.3125 44.6325 -18.3125 45.3125 C-18.9725 45.3125 -19.6325 45.3125 -20.3125 45.3125 C-20.3125 46.3025 -20.3125 47.2925 -20.3125 48.3125 C-21.3025 48.8075 -21.3025 48.8075 -22.3125 49.3125 C-21.33616535 50.50821386 -21.33616535 50.50821386 -19.52183533 50.43275452 C-18.74240067 50.43053391 -17.962966 50.42831329 -17.15991211 50.42602539 C-16.27907455 50.42594986 -15.398237 50.42587433 -14.4907074 50.42579651 C-13.05477989 50.41805458 -13.05477989 50.41805458 -11.58984375 50.41015625 C-10.61463272 50.4087413 -9.63942169 50.40732635 -8.63465881 50.40586853 C-5.50640857 50.40025133 -2.37822877 50.38769593 0.75 50.375 C2.86523334 50.36998722 4.98046781 50.36542393 7.09570312 50.36132812 C12.29299296 50.35027631 17.49024145 50.33352146 22.6875 50.3125 C23.0175 49.3225 23.3475 48.3325 23.6875 47.3125 C22.07140764 45.15771018 20.52623045 43.2522596 18.6875 41.3125 C18.21699219 40.80074219 17.74648438 40.28898438 17.26171875 39.76171875 C11.78490021 34.71978407 4.83398594 33.6072001 -2.375 33.85546875 C-8.65879923 34.83313432 -14.35255574 38.31952681 -18.3125 43.3125 Z " fill="#FE924B" transform="translate(1000.3125,705.6875)"/>
<path d="M0 0 C1.17322567 0.63384014 2.34068986 1.27855249 3.5 1.9375 C4.49 2.47375 5.48 3.01 6.5 3.5625 C7.49 4.243125 7.49 4.243125 8.5 4.9375 C8.5 5.5975 8.5 6.2575 8.5 6.9375 C9.03625 7.164375 9.5725 7.39125 10.125 7.625 C16.30819282 11.04202761 20.78928558 15.97667152 24.5 21.9375 C24.5 22.5975 24.5 23.2575 24.5 23.9375 C25.16 23.9375 25.82 23.9375 26.5 23.9375 C27.17154933 25.22663487 27.83708859 26.51890204 28.5 27.8125 C28.87125 28.53179688 29.2425 29.25109375 29.625 29.9921875 C30.5 31.9375 30.5 31.9375 30.5 33.9375 C31.16 34.2675 31.82 34.5975 32.5 34.9375 C33.0625 36.76953125 33.0625 36.76953125 33.5 38.9375 C33.83 40.154375 34.16 41.37125 34.5 42.625 C38.73184319 59.71027735 37.23641486 77.675841 29.46484375 93.40625 C28.5 94.9375 28.5 94.9375 26.5 95.9375 C25.19364726 98.24282837 24.34142926 100.41321223 23.5 102.9375 C22.84 102.9375 22.18 102.9375 21.5 102.9375 C20.84 104.5875 20.18 106.2375 19.5 107.9375 C18.84 107.9375 18.18 107.9375 17.5 107.9375 C17.5 108.5975 17.5 109.2575 17.5 109.9375 C15.87946188 111.32653267 14.20294787 112.65082828 12.5 113.9375 C11.63375 114.68 10.7675 115.4225 9.875 116.1875 C7.5 117.9375 7.5 117.9375 4.5 117.9375 C4.5 118.5975 4.5 119.2575 4.5 119.9375 C1.85261084 121.3981285 0.60551666 121.9375 -2.5 121.9375 C-2.5 122.5975 -2.5 123.2575 -2.5 123.9375 C-3.38042969 124.20304688 -4.26085937 124.46859375 -5.16796875 124.7421875 C-6.32941406 125.09539062 -7.49085938 125.44859375 -8.6875 125.8125 C-10.41033203 126.33457031 -10.41033203 126.33457031 -12.16796875 126.8671875 C-15.37593261 127.80732256 -15.37593261 127.80732256 -17.75390625 129.05078125 C-22.18679973 130.48217075 -26.62313922 130.26542287 -31.25 130.25 C-32.20132813 130.26611328 -33.15265625 130.28222656 -34.1328125 130.29882812 C-40.51035125 130.3031963 -45.59498061 129.28570707 -51.5 126.9375 C-52.74523437 126.50050781 -53.99046875 126.06351563 -55.2734375 125.61328125 C-67.67835945 120.91770884 -77.21358201 114.43362946 -85.5 103.9375 C-86.16 103.2775 -86.82 102.6175 -87.5 101.9375 C-88.52611949 100.28678604 -89.52308143 98.61779994 -90.5 96.9375 C-90.974375 96.215625 -91.44875 95.49375 -91.9375 94.75 C-101.54119769 77.46334416 -102.71763235 59.29038652 -97.66796875 40.5234375 C-96.46737631 36.83733762 -95.1765363 33.43138405 -93.5 29.9375 C-92.51 29.4425 -92.51 29.4425 -91.5 28.9375 C-91.37625 28.174375 -91.2525 27.41125 -91.125 26.625 C-90.34799154 23.28386363 -89.00297384 22.21962321 -86.5 19.9375 C-85.96375 19.195 -85.4275 18.4525 -84.875 17.6875 C-84.42125 17.11 -83.9675 16.5325 -83.5 15.9375 C-82.84 15.9375 -82.18 15.9375 -81.5 15.9375 C-81.5 14.9475 -81.5 13.9575 -81.5 12.9375 C-77.03457715 7.46375587 -71.00179105 4.32362562 -64.5 1.75 C-62.31562924 1.11903844 -62.31562924 1.11903844 -61.5 -1.0625 C-56.31097606 -3.65701197 -51.1747072 -4.96382549 -45.5 -6.0625 C-29.48696825 -9.19548447 -14.9817421 -7.3778013 0 0 Z M-38.5 30.9375 C-39.28375 31.06125 -40.0675 31.185 -40.875 31.3125 C-45.16413072 32.3337216 -48.68462633 34.52941608 -51.5 37.9375 C-51.5 38.5975 -51.5 39.2575 -51.5 39.9375 C-52.16 39.9375 -52.82 39.9375 -53.5 39.9375 C-53.5 40.5975 -53.5 41.2575 -53.5 41.9375 C-54.16 41.9375 -54.82 41.9375 -55.5 41.9375 C-55.974375 42.948125 -56.44875 43.95875 -56.9375 45 C-57.20433594 45.56847656 -57.47117187 46.13695312 -57.74609375 46.72265625 C-59.59882504 52.16565438 -59.65848776 57.86449633 -59.6875 63.5625 C-59.70167969 64.83351563 -59.71585938 66.10453125 -59.73046875 67.4140625 C-59.51275665 70.7424746 -58.94240483 72.96147107 -57.5 75.9375 C-56.84 75.9375 -56.18 75.9375 -55.5 75.9375 C-55.17 77.5875 -54.84 79.2375 -54.5 80.9375 C-53.51 81.2675 -52.52 81.5975 -51.5 81.9375 C-50.83113221 83.2697305 -50.16468916 84.60317975 -49.5 85.9375 C-46.18988229 88.71419918 -42.89899646 90.81843647 -38.5625 91.1875 C-37.881875 91.105 -37.20125 91.0225 -36.5 90.9375 C-36.005 91.4325 -36.005 91.4325 -35.5 91.9375 C-27.42755063 92.43173159 -20.86389459 91.05628478 -14.5 85.9375 C-9.35191703 80.54309727 -6.46065706 76.48551975 -5.5 68.9375 C-5.005 67.9475 -5.005 67.9475 -4.5 66.9375 C-4.40316436 65.16882545 -4.37020618 63.39631697 -4.375 61.625 C-4.37242187 60.68011719 -4.36984375 59.73523438 -4.3671875 58.76171875 C-4.494637 56.05154264 -4.89403774 53.57776415 -5.5 50.9375 C-6.16 50.9375 -6.82 50.9375 -7.5 50.9375 C-7.28730469 50.36515625 -7.07460938 49.7928125 -6.85546875 49.203125 C-6.38801646 46.22375875 -7.17769333 45.17424817 -8.8125 42.6875 C-9.48732422 41.62789062 -9.48732422 41.62789062 -10.17578125 40.546875 C-10.61277344 40.01578125 -11.04976562 39.4846875 -11.5 38.9375 C-12.16 38.9375 -12.82 38.9375 -13.5 38.9375 C-13.685625 38.36 -13.87125 37.7825 -14.0625 37.1875 C-16.21484006 33.81861991 -18.81003603 32.23114346 -22.5 30.9375 C-30.57599966 29.64731231 -30.57599966 29.64731231 -38.5 30.9375 Z " fill="#FE924B" transform="translate(678.5,713.0625)"/>
<path d="M0 0 C0.77214844 0.14308594 1.54429687 0.28617188 2.33984375 0.43359375 C5.417025 1.08879387 7.96773965 2.22580538 10.8125 3.5625 C11.78832031 4.01753906 12.76414062 4.47257813 13.76953125 4.94140625 C14.50558594 5.29074219 15.24164062 5.64007812 16 6 C16 6.66 16 7.32 16 8 C16.86625 8.1546875 16.86625 8.1546875 17.75 8.3125 C22.51961065 9.76988103 25.59494724 13.50982092 29 17 C29.763125 17.721875 30.52625 18.44375 31.3125 19.1875 C33 21 33 21 33 23 C34.485 23.495 34.485 23.495 36 24 C37.64820195 26.60242414 38 27.86248779 38 31 C38.66 31 39.32 31 40 31 C40.98065487 33.27020102 41.9595769 35.54112254 42.9375 37.8125 C43.21529297 38.45509766 43.49308594 39.09769531 43.77929688 39.75976562 C49.23250002 52.44010546 50.60686537 65.69968396 47 79 C47.04125 79.825 47.0825 80.65 47.125 81.5 C46.92527207 85.4945585 44.86970538 88.52596678 43 92 C42.141705 93.72712123 41.28762249 95.45634148 40.4375 97.1875 C37.03827412 103.95495577 33.38144495 109.61855505 28 115 C27.195625 115.86625 26.39125 116.7325 25.5625 117.625 C23 120 23 120 20 120 C20 120.66 20 121.32 20 122 C8.22931815 130.35338712 -7.57839331 134.15596792 -21.8125 134.25 C-22.96588867 134.2809375 -22.96588867 134.2809375 -24.14257812 134.3125 C-29.71777329 134.35013845 -33.91519665 133.20202081 -39 131 C-40.87417044 130.33100478 -42.74907024 129.66404593 -44.625 129 C-48.58415562 127.56831647 -52.29861156 126.00075051 -56 124 C-56 123.34 -56 122.68 -56 122 C-57.65 121.67 -59.3 121.34 -61 121 C-61 120.34 -61 119.68 -61 119 C-61.556875 118.773125 -62.11375 118.54625 -62.6875 118.3125 C-65.65253447 116.6296426 -67.65353689 114.46378626 -70 112 C-71.1446875 110.9171875 -71.1446875 110.9171875 -72.3125 109.8125 C-74 108 -74 108 -74 106 C-74.66 106 -75.32 106 -76 106 C-86.48983201 87.34219602 -91.4357461 68.56265463 -87 47 C-85.4375 43.5625 -85.4375 43.5625 -84 41 C-84 40.01 -84 39.02 -84 38 C-83.34 38 -82.68 38 -82 38 C-81.83757812 37.17822266 -81.83757812 37.17822266 -81.671875 36.33984375 C-79.656603 29.32154184 -75.47351312 22.77178067 -70 18 C-69.175 17.154375 -68.35 16.30875 -67.5 15.4375 C-61.92468362 10.00156653 -55.84912172 6.60747509 -49 3 C-47.989375 2.4225 -46.97875 1.845 -45.9375 1.25 C-41.74735496 -0.53304044 -37.4683396 -1.22105015 -33 -2 C-29.56203991 -2.6552475 -29.56203991 -2.6552475 -26.1875 -3.5625 C-17.25681236 -5.34863753 -8.12314832 -3.74914538 0 0 Z M-27 35 C-27.721875 35.061875 -28.44375 35.12375 -29.1875 35.1875 C-36.21094636 37.21649562 -41.50112441 42.74725654 -45 49 C-49.4578823 57.76654678 -49.96291229 67.04149277 -47.0078125 76.359375 C-44.13862595 83.8770886 -41.0778314 88.96037441 -34 93 C-33.29875 93.433125 -32.5975 93.86625 -31.875 94.3125 C-29.52065474 95.17575993 -27.48828842 95.06725104 -25 95 C-24.505 95.495 -24.505 95.495 -24 96 C-16.44907758 96.5393516 -9.55775592 94.86135328 -3 91 C4.72540197 83.14168788 8 73.93551567 8 63 C7.32936127 56.69180443 5.0197062 51.50860467 2 46 C1.72800781 45.34 1.45601562 44.68 1.17578125 44 C-1.45689849 39.52182051 -6.40854265 37.11529051 -11 35 C-16.41768568 33.90923125 -21.70048254 33.23349418 -27 35 Z " fill="#FE924C" transform="translate(517,709)"/>
<path d="M0 0 C1.98518276 0.67588907 3.96742245 1.20323286 6.0078125 1.68359375 C6.0078125 2.34359375 6.0078125 3.00359375 6.0078125 3.68359375 C6.7503125 3.62171875 7.4928125 3.55984375 8.2578125 3.49609375 C11.56085911 3.72130147 12.51498196 4.58026798 15.0078125 6.68359375 C15.8328125 7.13734375 16.6578125 7.59109375 17.5078125 8.05859375 C20.44365847 9.96689363 22.16337691 11.70412088 24.0078125 14.68359375 C23.7578125 17.49609375 23.7578125 17.49609375 23.0078125 19.68359375 C22.3478125 19.68359375 21.6878125 19.68359375 21.0078125 19.68359375 C20.75386719 20.575625 20.49992187 21.46765625 20.23828125 22.38671875 C18.98407688 25.74719015 17.63328848 27.7252761 15.3203125 30.43359375 C11.7394034 34.70214119 8.68066035 39.11448432 5.74609375 43.84765625 C4.0078125 45.68359375 4.0078125 45.68359375 1.515625 46.0703125 C-1.42033479 45.61757104 -3.54980804 44.42446372 -6.05078125 42.8515625 C-6.69144531 42.46613281 -7.33210938 42.08070313 -7.9921875 41.68359375 C-8.83265625 41.15378906 -9.673125 40.62398437 -10.5390625 40.078125 C-15.33943603 38.13951261 -19.67466649 38.1697941 -24.8046875 38.18359375 C-26.22491211 38.14105469 -26.22491211 38.14105469 -27.67382812 38.09765625 C-33.91630728 38.08047117 -37.96586867 39.21127897 -43.22143555 42.60742188 C-44.9921875 43.68359375 -44.9921875 43.68359375 -46.9921875 43.68359375 C-47.3221875 44.67359375 -47.6521875 45.66359375 -47.9921875 46.68359375 C-48.6521875 46.68359375 -49.3121875 46.68359375 -49.9921875 46.68359375 C-50.3221875 47.67359375 -50.6521875 48.66359375 -50.9921875 49.68359375 C-51.9921875 50.68359375 -52.9921875 51.68359375 -53.9921875 52.68359375 C-57.32346779 56.92340503 -58.65107604 60.52870086 -59.59765625 65.73046875 C-59.9921875 67.68359375 -59.9921875 67.68359375 -60.9921875 69.68359375 C-61.56349647 77.44021176 -61.167851 83.59942132 -57.9921875 90.68359375 C-57.61771002 91.99044374 -57.26253304 93.30302542 -56.9296875 94.62109375 C-56.6203125 95.63171875 -56.3109375 96.64234375 -55.9921875 97.68359375 C-55.0021875 98.17859375 -55.0021875 98.17859375 -53.9921875 98.68359375 C-53.095 100.10671875 -53.095 100.10671875 -52.1796875 101.55859375 C-49.86302081 104.86811759 -48.52912862 105.87582384 -44.9921875 107.68359375 C-43.96544922 108.30427734 -43.96544922 108.30427734 -42.91796875 108.9375 C-42.15871094 109.38996094 -41.39945312 109.84242188 -40.6171875 110.30859375 C-39.90820312 110.73398437 -39.19921875 111.159375 -38.46875 111.59765625 C-32.8312079 114.06963843 -26.95354638 113.78949689 -20.9296875 113.37109375 C-20.24841797 113.33564453 -19.56714844 113.30019531 -18.86523438 113.26367188 C-14.62591876 112.99082447 -10.91380822 112.33700157 -6.9921875 110.68359375 C-6.6621875 110.02359375 -6.3321875 109.36359375 -5.9921875 108.68359375 C-3.9921875 108.01692708 -1.9921875 107.35026042 0.0078125 106.68359375 C0.3378125 106.02359375 0.6678125 105.36359375 1.0078125 104.68359375 C4.80160308 106.17401148 6.69125008 108.37421887 9.0078125 111.68359375 C9.0078125 112.34359375 9.0078125 113.00359375 9.0078125 113.68359375 C9.6678125 113.68359375 10.3278125 113.68359375 11.0078125 113.68359375 C14.0078125 119.43359375 14.0078125 119.43359375 14.0078125 121.68359375 C14.6678125 121.68359375 15.3278125 121.68359375 16.0078125 121.68359375 C16.0078125 122.34359375 16.0078125 123.00359375 16.0078125 123.68359375 C16.6678125 124.01359375 17.3278125 124.34359375 18.0078125 124.68359375 C19.10420437 126.05834418 20.13866049 127.4831884 21.1328125 128.93359375 C21.67164063 129.701875 22.21046875 130.47015625 22.765625 131.26171875 C24.18006545 134.01943283 24.3944249 135.62630358 24.0078125 138.68359375 C22.1328125 140.99609375 22.1328125 140.99609375 20.0078125 142.68359375 C19.3478125 142.68359375 18.6878125 142.68359375 18.0078125 142.68359375 C17.6778125 143.34359375 17.3478125 144.00359375 17.0078125 144.68359375 C11.66784805 148.34528366 5.57244657 149.8435716 -0.5546875 151.74609375 C-1.64910156 152.08769531 -2.74351562 152.42929687 -3.87109375 152.78125 C-20.71918937 157.65222633 -38.64123223 155.08249407 -54.9921875 149.68359375 C-54.9921875 149.02359375 -54.9921875 148.36359375 -54.9921875 147.68359375 C-55.71664062 147.74933594 -56.44109375 147.81507813 -57.1875 147.8828125 C-60.66364513 147.63589968 -62.09688792 146.57160573 -64.8671875 144.49609375 C-65.73472656 143.85414063 -66.60226562 143.2121875 -67.49609375 142.55078125 C-68.31980469 141.93460938 -69.14351563 141.3184375 -69.9921875 140.68359375 C-71.26170119 139.82746698 -72.53235585 138.97302698 -73.8046875 138.12109375 C-77.12055629 135.75261604 -79.46221309 132.87935089 -81.9921875 129.68359375 C-82.8996875 128.79671875 -83.8071875 127.90984375 -84.7421875 126.99609375 C-86.9921875 124.68359375 -86.9921875 124.68359375 -87.9921875 121.68359375 C-88.6521875 121.68359375 -89.3121875 121.68359375 -89.9921875 121.68359375 C-96.19384308 110.8100243 -100.18339423 100.98863319 -102.37890625 88.7109375 C-102.67496248 85.81660715 -102.67496248 85.81660715 -103.9921875 84.68359375 C-104.12016811 81.96326174 -104.17741249 79.27951005 -104.1796875 76.55859375 C-104.19193359 75.8109375 -104.20417969 75.06328125 -104.21679688 74.29296875 C-104.22957517 69.40314237 -103.48038901 65.38378229 -101.9921875 60.68359375 C-101.82608268 59.35475517 -101.69211022 58.02067616 -101.6171875 56.68359375 C-101.14585177 52.24446816 -99.30769941 49.47261323 -96.9921875 45.68359375 C-96.528125 44.22953125 -96.528125 44.22953125 -96.0546875 42.74609375 C-94.85084631 39.27619856 -93.13715169 36.56043898 -91.11328125 33.515625 C-89.83028864 31.57364301 -89.83028864 31.57364301 -88.9921875 28.68359375 C-87.87543717 27.49916158 -86.74815974 26.32291209 -85.5703125 25.19921875 C-84.41219443 24.08696674 -83.2802389 22.94730503 -82.1640625 21.79296875 C-77.81028765 17.30206713 -73.33457198 12.99436723 -67.9921875 9.68359375 C-67.3321875 9.68359375 -66.6721875 9.68359375 -65.9921875 9.68359375 C-65.9921875 9.02359375 -65.9921875 8.36359375 -65.9921875 7.68359375 C-65.2496875 7.39484375 -64.5071875 7.10609375 -63.7421875 6.80859375 C-62.17985098 6.16945608 -60.62699341 5.50099671 -59.1171875 4.74609375 C-53.11072485 1.74286242 -47.36684766 -0.0873193 -40.828125 -1.62109375 C-37.8721056 -2.29687776 -37.8721056 -2.29687776 -34.6171875 -3.50390625 C-22.86884915 -6.1371545 -11.14727874 -3.96941844 0 0 Z " fill="#FE924C" transform="translate(390.9921875,698.31640625)"/>
<path d="M0 0 C4.75383714 2.51794883 4.75383714 2.51794883 9.75 4.5 C9.75 5.16 9.75 5.82 9.75 6.5 C10.348125 6.603125 10.94625 6.70625 11.5625 6.8125 C14.1482798 7.62517365 14.95480175 8.48937796 16.75 10.5 C18.0184375 11.6446875 18.0184375 11.6446875 19.3125 12.8125 C22.00498969 15.78114248 23.18267505 17.52872538 23.75 21.5 C21.69100889 25.61798222 19.91103098 27.67954895 15.75 29.5 C14.3934836 30.80973998 13.06442362 32.14802142 11.75 33.5 C10.6196565 34.57896425 9.47250097 35.64048614 8.3125 36.6875 C7.75691406 37.19667969 7.20132812 37.70585938 6.62890625 38.23046875 C4.23854399 39.84557839 2.6371891 40.3357587 -0.25 40.5 C-2.92578125 39.35546875 -2.92578125 39.35546875 -5.5625 37.6875 C-6.88701172 36.87345703 -6.88701172 36.87345703 -8.23828125 36.04296875 C-8.90214844 35.53378906 -9.56601563 35.02460937 -10.25 34.5 C-10.25 33.84 -10.25 33.18 -10.25 32.5 C-15.98055582 30.97185178 -22.60590541 30.61863514 -28.25 32.5 C-29.04953138 35.78696233 -29.34658936 37.21023192 -28.25 40.5 C-26.5175 40.6546875 -26.5175 40.6546875 -24.75 40.8125 C-21.03852379 41.27399704 -17.93133904 42.26971193 -14.48046875 43.66796875 C-10.17328149 45.27467783 -5.69626195 46.34756813 -1.25 47.5 C-1.25 48.16 -1.25 48.82 -1.25 49.5 C-0.52296875 49.61214844 0.2040625 49.72429688 0.953125 49.83984375 C9.34167498 51.81982272 16.94195923 58.35971961 22.75 64.5 C24.6875 67.6875 24.6875 67.6875 25.75 70.5 C26.12125 71.325 26.4925 72.15 26.875 73 C30.45376374 83.22503927 30.75197613 97.02031457 26.43945312 106.99243164 C24.14179122 111.74957104 21.87033069 116.03517646 17.75 119.5 C17.09 119.5 16.43 119.5 15.75 119.5 C15.75 120.16 15.75 120.82 15.75 121.5 C13.6875 122.875 13.6875 122.875 10.75 124.5 C9.780625 125.139375 8.81125 125.77875 7.8125 126.4375 C2.27397057 129.6304438 -4.12409929 130.86078285 -10.25 132.5 C-11.24 132.83 -12.23 133.16 -13.25 133.5 C-17.30806243 133.76066386 -21.37196607 133.73146765 -25.4375 133.75 C-27.10522461 133.7809375 -27.10522461 133.7809375 -28.80664062 133.8125 C-35.42217681 133.84383469 -40.22901308 133.24340697 -46.25 130.5 C-47.76207031 129.93539062 -47.76207031 129.93539062 -49.3046875 129.359375 C-56.22084548 126.6388918 -62.62491247 123.44061892 -68.25 118.5 C-68.25 117.84 -68.25 117.18 -68.25 116.5 C-68.91 116.5 -69.57 116.5 -70.25 116.5 C-71.79296875 114.70703125 -71.79296875 114.70703125 -73.4375 112.3125 C-73.98792969 111.53519531 -74.53835938 110.75789062 -75.10546875 109.95703125 C-76.25 107.5 -76.25 107.5 -76.1953125 105.0234375 C-74.98633558 101.79616854 -73.27320685 99.83934489 -70.9375 97.3125 C-69.76767578 96.02279297 -69.76767578 96.02279297 -68.57421875 94.70703125 C-66.47257347 92.71135128 -64.83440495 91.69806852 -62.25 90.5 C-61.5662955 89.17532254 -60.90035814 87.84136367 -60.25 86.5 C-58.375 84.6875 -58.375 84.6875 -56.25 83.5 C-52.42562766 83.62336685 -49.97919835 85.99823484 -47.25 88.5 C-47.25 89.16 -47.25 89.82 -47.25 90.5 C-46.40308594 90.685625 -46.40308594 90.685625 -45.5390625 90.875 C-43.09818951 91.54144996 -40.92704241 92.45291716 -38.625 93.5 C-37.84898438 93.850625 -37.07296875 94.20125 -36.2734375 94.5625 C-34.9228143 95.18827137 -33.58139711 95.83430144 -32.25 96.5 C-30.29450744 96.62257461 -28.33429382 96.67552388 -26.375 96.6875 C-24.80105469 96.70876953 -24.80105469 96.70876953 -23.1953125 96.73046875 C-20.26626036 96.50127236 -18.7766148 95.88362239 -16.25 94.5 C-15.26 94.5 -14.27 94.5 -13.25 94.5 C-13.04029441 90.35906302 -13.04029441 90.35906302 -14.25 86.5 C-15.91592747 85.73367336 -17.58768557 84.97699172 -19.2890625 84.29296875 C-21.1346419 83.54664879 -22.94435567 82.71333487 -24.75 81.875 C-28.19679732 80.36262874 -28.19679732 80.36262874 -31.875 80 C-35.43262991 79.47294372 -37.27390422 78.43044051 -40.25 76.5 C-40.86875 76.35046875 -41.4875 76.2009375 -42.125 76.046875 C-44.53345534 75.42705193 -46.3952736 74.46641837 -48.5625 73.25 C-49.28050781 72.85296875 -49.99851562 72.4559375 -50.73828125 72.046875 C-51.56714844 71.53640625 -52.39601563 71.0259375 -53.25 70.5 C-54.08241211 69.99339844 -54.08241211 69.99339844 -54.93164062 69.4765625 C-59.7089516 66.35710755 -62.34939178 62.93550053 -65.125 58 C-65.70894531 57.02353516 -65.70894531 57.02353516 -66.3046875 56.02734375 C-71.75636861 46.65726685 -71.42341406 35.08373469 -70.25 24.5 C-68.89334068 20.2000002 -67.02741928 17.02444929 -64.25 13.5 C-63.78207031 12.8296875 -63.31414062 12.159375 -62.83203125 11.46875 C-59.24271781 6.72321515 -54.67896 3.85616864 -49.25 1.5 C-48.59 1.5 -47.93 1.5 -47.25 1.5 C-47.25 0.84 -47.25 0.18 -47.25 -0.5 C-45.88875 -0.685625 -45.88875 -0.685625 -44.5 -0.875 C-41.38646995 -1.30589165 -41.38646995 -1.30589165 -39.37036133 -2.51098633 C-36.83052841 -3.69565681 -34.86926486 -3.8316197 -32.07421875 -3.94921875 C-31.08099609 -3.99240234 -30.08777344 -4.03558594 -29.06445312 -4.08007812 C-27.51661133 -4.13325195 -27.51661133 -4.13325195 -25.9375 -4.1875 C-24.91720703 -4.23455078 -23.89691406 -4.28160156 -22.84570312 -4.33007812 C-14.27166028 -4.66816256 -7.66962693 -4.1336301 0 0 Z " fill="#FE924C" transform="translate(1153.25,709.5)"/>
<path d="M0 0 C1.8881543 -0.05510742 1.8881543 -0.05510742 3.81445312 -0.11132812 C14.18231429 -0.16051671 14.18231429 -0.16051671 18.44921875 3.41015625 C21.76140316 6.84547019 23.43533278 9.50098036 23.46165466 14.32466125 C23.47661736 15.79452484 23.47661736 15.79452484 23.49188232 17.29408264 C23.492547 18.36790695 23.49321167 19.44173126 23.49389648 20.5480957 C23.50222 21.68006378 23.51054352 22.81203186 23.51911926 23.978302 C23.54327419 27.73166311 23.55199839 31.48485059 23.55859375 35.23828125 C23.5675562 37.84278924 23.57667796 40.44729669 23.58595276 43.05180359 C23.60332342 48.51688282 23.6101792 53.98191769 23.61303711 59.44702148 C23.61667042 65.75750222 23.64654968 72.06749599 23.68844169 78.37782794 C23.72735791 84.45351026 23.73863049 90.52895624 23.73976326 96.60475731 C23.74397281 99.18716255 23.75643629 101.76956793 23.77728081 104.35189247 C23.80411944 107.96460015 23.79939053 111.57596441 23.78686523 115.1887207 C23.80169952 116.25647232 23.81653381 117.32422394 23.83181763 118.42433167 C23.75184133 126.52029256 23.75184133 126.52029256 20.88235474 130.22483826 C17.39789522 133.2474456 14.60525408 133.43322089 10.18359375 133.359375 C9.42329361 133.36511536 8.66299347 133.37085571 7.87965393 133.37677002 C6.27854417 133.38083894 4.6773336 133.36986427 3.07641602 133.34472656 C0.62746139 133.31253236 -1.81491936 133.3444624 -4.26367188 133.3828125 C-5.8229312 133.37884826 -7.38218644 133.37116213 -8.94140625 133.359375 C-9.67065811 133.37152039 -10.39990997 133.38366577 -11.15126038 133.3961792 C-13.22485352 133.33886719 -13.22485352 133.33886719 -16.8125 132.5625 C-21.74230992 127.31562377 -21.37654893 122.05365547 -21.31420898 115.12866211 C-21.31961197 113.98489609 -21.32501495 112.84113007 -21.33058167 111.66270447 C-21.34307243 107.88815306 -21.32657548 104.11436376 -21.30859375 100.33984375 C-21.30874872 97.71480774 -21.31023732 95.0897715 -21.31300354 92.46473694 C-21.31570193 86.96622849 -21.30226101 81.46793881 -21.27905273 75.96948242 C-21.25243189 69.61869091 -21.25070137 63.26826474 -21.2624411 56.91743654 C-21.27323088 50.79848138 -21.26692165 44.67967913 -21.25288582 38.56073189 C-21.24836758 35.96078437 -21.24803775 33.36082611 -21.25195122 30.76087761 C-21.25485888 27.12934146 -21.23837701 23.49840391 -21.21655273 19.86694336 C-21.22105438 18.79095886 -21.22555603 17.71497437 -21.23019409 16.60638428 C-21.16678764 10.26183858 -20.67335018 6.40001218 -16.0168457 1.78149414 C-11.25740501 -0.85045706 -5.30279395 0.00807122 0 0 Z " fill="#FE9549" transform="translate(895.8125,732.4375)"/>
<path d="M0 0 C2.16412879 -0.00970026 4.32730513 -0.0407333 6.49121094 -0.07226562 C7.87401782 -0.0787969 9.25683147 -0.08404688 10.63964844 -0.08789062 C12.51982666 -0.10190918 12.51982666 -0.10190918 14.43798828 -0.11621094 C18.08451961 0.26997329 19.91300834 1.02698955 22.80371094 3.24023438 C25.10127015 6.6865732 25.04015069 7.95091829 24.99902344 12.00195312 C24.99257813 13.12021484 24.98613281 14.23847656 24.97949219 15.390625 C24.96273437 16.55787109 24.94597656 17.72511719 24.92871094 18.92773438 C24.9196875 20.10658203 24.91066406 21.28542969 24.90136719 22.5 C24.87777517 25.41361464 24.84485634 28.32682329 24.80371094 31.24023438 C24.14371094 31.24023438 23.48371094 31.24023438 22.80371094 31.24023438 C22.51496094 32.02398438 22.22621094 32.80773437 21.92871094 33.61523438 C20.80371094 36.24023438 20.80371094 36.24023438 18.80371094 38.24023438 C16.35364576 38.4887617 14.02023294 38.61649814 11.56542969 38.64648438 C10.84764847 38.65788452 10.12986725 38.66928467 9.39033508 38.68103027 C7.86973975 38.69993286 6.34906244 38.71299935 4.82836914 38.72070312 C2.50943473 38.74008208 0.19407516 38.80208302 -2.12402344 38.86523438 C-3.60251804 38.87829898 -5.08103797 38.88879816 -6.55957031 38.89648438 C-7.59420158 38.93352478 -7.59420158 38.93352478 -8.6497345 38.97131348 C-12.6815848 38.93430209 -14.11190266 38.31657664 -17.13647461 35.58032227 C-19.33727443 32.01161984 -19.81860048 30.27587021 -19.79003906 26.14257812 C-19.78746094 25.01142578 -19.78488281 23.88027344 -19.78222656 22.71484375 C-19.75386719 21.54759766 -19.72550781 20.38035156 -19.69628906 19.17773438 C-19.69886719 18.00662109 -19.70144531 16.83550781 -19.70410156 15.62890625 C-19.59108662 5.72314652 -19.59108662 5.72314652 -16.19628906 1.24023438 C-11.00291587 -0.49089002 -5.437197 0.0147683 0 0 Z " fill="#FE9449" transform="translate(894.1962890625,682.759765625)"/>
<path d="M0 0 C0.66 0.28875 1.32 0.5775 2 0.875 C2 1.535 2 2.195 2 2.875 C2.99 3.205 3.98 3.535 5 3.875 C5.69937532 5.19147119 6.36729133 6.52522151 7 7.875 C7.66 8.205 8.32 8.535 9 8.875 C9 9.865 9 10.855 9 11.875 C9.99 12.205 10.98 12.535 12 12.875 C12 13.865 12 14.855 12 15.875 C12.99 16.205 13.98 16.535 15 16.875 C16.5121867 19.89937339 16.17263369 22.53741534 16 25.875 C15.08283165 28.45067485 14.53002699 29.5802962 12.1171875 30.921875 C5.21974076 33.08483739 -0.50590513 34.29190633 -7.3125 31.0625 C-11.2393049 28.98360329 -13.57060846 27.16317462 -15 22.875 C-15.77662321 16.42011528 -14.95036915 11.134823 -11 5.875 C-7.66288292 2.54484976 -4.86089764 -0.2025374 0 0 Z " fill="#FE924C" transform="translate(226,532.125)"/>
<path d="M0 0 C4.29440117 0.47715569 7.86949917 1.81693183 11.375 4.375 C12.609375 6.515625 12.609375 6.515625 13.375 8.375 C12.715 9.035 12.055 9.695 11.375 10.375 C10.7324765 12.44374034 10.7324765 12.44374034 10.375 14.375 C9.715 14.375 9.055 14.375 8.375 14.375 C8.08625 15.014375 7.7975 15.65375 7.5 16.3125 C6.375 18.375 6.375 18.375 4.375 19.375 C0.0856322 19.86058881 -1.90476055 19.9031756 -5.4375 17.3125 C-7.97931667 13.89920332 -8.73668941 11.49353093 -9.625 7.375 C-2.625 0.375 -2.625 0.375 0 0 Z " fill="#FE944B" transform="translate(227.625,589.625)"/>
<path d="M0 0 C2.55376992 0.85125664 3.66416489 1.568212 5.3125 3.6875 C6.33096265 7.11323799 5.86045982 9.55816074 5 13 C2.97420161 15.74929781 1.68911891 16.78149888 -1.5625 17.8125 C-4 18 -4 18 -7 17 C-7 16.34 -7 15.68 -7 15 C-8.32 14.34 -9.64 13.68 -11 13 C-11.29354833 9.94709737 -11.41409388 7.04542461 -11 4 C-7.73077136 0.05769488 -5.00611634 -0.63907868 0 0 Z " fill="#FE924D" transform="translate(177,585)"/>
<path d="M0 0 C3.54797757 1.26713485 5.25246967 3.03774071 7.625 5.9375 C8.64727429 8.73171641 8.86039311 10.16070275 8 13 C6.14603714 15.61240221 4.34148271 17.23180155 1.625 18.9375 C-1.95528173 19.02700704 -3.28495036 18.00708381 -6.125 15.8125 C-8.76647413 12.43728306 -9.12648178 10.16230975 -9.375 5.9375 C-8.715 5.9375 -8.055 5.9375 -7.375 5.9375 C-7.106875 5.31875 -6.83875 4.7 -6.5625 4.0625 C-4.91850377 1.12061202 -3.42543304 -0.09014297 0 0 Z " fill="#FE954C" transform="translate(164.375,508.0625)"/>
<path d="M0 0 C2.76287022 2.84920991 2.97774292 4.67727241 3.25 8.625 C3 12 3 12 2 15 C-2.15348094 17.44322408 -5.40400858 17.10644238 -10 16 C-12.65858359 14.31623039 -12.94962718 13.17824229 -13.8125 10.125 C-14.01832636 6.6945606 -13.72525262 4.95757592 -12 2 C-8.45600391 -0.86245838 -4.31244196 -0.47916022 0 0 Z " fill="#FE924C" transform="translate(198,505)"/>
<path d="M0 0 C3.26893451 3.26893451 3.08436606 6.7152374 3.1875 11.1875 C2.5275 11.1875 1.8675 11.1875 1.1875 11.1875 C0.8575 12.1775 0.5275 13.1675 0.1875 14.1875 C-2.26027839 15.4113892 -3.54640541 15.203864 -6.25 14.9375 C-7.42369141 14.83695313 -7.42369141 14.83695313 -8.62109375 14.734375 C-11.23631738 14.08173452 -12.2377611 13.36165564 -13.8125 11.1875 C-13.74676087 7.50610878 -13.68947475 5.12943584 -11.125 2.375 C-4.15980539 -1.20172156 -4.15980539 -1.20172156 0 0 Z " fill="#FE954B" transform="translate(171.8125,548.8125)"/>
<path d="M0 0 C0.33 0 0.66 0 1 0 C1 52.14 1 104.28 1 158 C0.67 158 0.34 158 0 158 C0 105.86 0 53.72 0 0 Z " fill="#FFFF00" transform="translate(731,694)"/>
<path d="M0 0 C4.49847561 1.84552846 4.49847561 1.84552846 6.4375 4 C7.125 7.375 7.125 7.375 6.4375 11 C4.33456516 13.09249844 2.02530043 14.56746762 -0.5625 16 C-4.49573099 13.90785586 -6.26840651 12.85132326 -7.75 8.5625 C-7.5625 5 -7.5625 5 -5.4375 2 C-2.5625 0 -2.5625 0 0 0 Z " fill="#FE934D" transform="translate(204.5625,565)"/>
<path d="M0 0 C0.33 0 0.66 0 1 0 C1 46.2 1 92.4 1 140 C0.67 140 0.34 140 0 140 C0 93.8 0 47.6 0 0 Z " fill="#FFFF00" transform="translate(927,517)"/>
<path d="M0 0 C0.66 0.33 1.32 0.66 2 1 C1.19175781 1.73605469 0.38351563 2.47210938 -0.44921875 3.23046875 C-1.52870221 4.21608409 -2.60812612 5.20176465 -3.6875 6.1875 C-4.48317383 6.91163086 -4.48317383 6.91163086 -5.29492188 7.65039062 C-7.82337415 9.96167522 -10.29541434 12.29541434 -12.71875 14.71875 C-15.0170532 17.0170532 -17.42839661 19.01619167 -20 21 C-20 20.01 -20 19.02 -20 18 C-18.3524116 16.64316249 -16.68083079 15.31543279 -15 14 C-13.97681926 12.85360902 -12.97770944 11.68540937 -12 10.5 C-9.57660004 7.59566757 -7.12719612 5.17166397 -4 3 C-3.34 3 -2.68 3 -2 3 C-2 2.34 -2 1.68 -2 1 C-1.34 0.67 -0.68 0.34 0 0 Z " fill="#FE9B55" transform="translate(127,416)"/>
<path d="M0 0 C3.3 0 6.6 0 10 0 C10 0.33 10 0.66 10 1 C6.7 1 3.4 1 0 1 C0 0.67 0 0.34 0 0 Z " fill="#FFFF00" transform="translate(225,621)"/>
<path d="M0 0 C2.97 0 5.94 0 9 0 C9 0.33 9 0.66 9 1 C6.03 1 3.06 1 0 1 C0 0.67 0 0.34 0 0 Z " fill="#FFFF00" transform="translate(226,383)"/>
<path d="M0 0 C2.97 0 5.94 0 9 0 C9 0.33 9 0.66 9 1 C6.03 1 3.06 1 0 1 C0 0.67 0 0.34 0 0 Z " fill="#FFFF00" transform="translate(207,383)"/>
<path d="M0 0 C1.65 0 3.3 0 5 0 C5 0.33 5 0.66 5 1 C3.35 1 1.7 1 0 1 C0 0.67 0 0.34 0 0 Z " fill="#FFFF00" transform="translate(882,866)"/>
<path d="M0 0 C1.65 0 3.3 0 5 0 C5 0.33 5 0.66 5 1 C3.35 1 1.7 1 0 1 C0 0.67 0 0.34 0 0 Z " fill="#FFFF00" transform="translate(1000,806)"/>
<path d="M0 0 C1.65 0 3.3 0 5 0 C5 0.33 5 0.66 5 1 C3.35 1 1.7 1 0 1 C0 0.67 0 0.34 0 0 Z " fill="#FFFF00" transform="translate(249,621)"/>
<path d="M0 0 C4 1 4 1 4 1 Z " fill="#FFFF00" transform="translate(367,854)"/>
<path d="M0 0 C1 4 1 4 1 4 Z " fill="#FFFF00" transform="translate(1139,798)"/>
<path d="M0 0 C1 4 1 4 1 4 Z " fill="#FFFF00" transform="translate(715,780)"/>
<path d="M0 0 C1 4 1 4 1 4 Z " fill="#FFFF00" transform="translate(715,764)"/>
<path d="M0 0 C3 1 3 1 3 1 Z " fill="#FFFF00" transform="translate(1134,843)"/>
<path d="" fill="#FFFF00" transform="translate(0,0)"/>
<path d="M0 0 C3 1 3 1 3 1 Z " fill="#FFFF00" transform="translate(1004,741)"/>
<path d="" fill="#FFFF00" transform="translate(0,0)"/>
<path d="" fill="#FFFF00" transform="translate(0,0)"/>
<path d="" fill="#FFFF00" transform="translate(0,0)"/>
<path d="M0 0 C2 1 2 1 2 1 Z " fill="#FFFF00" transform="translate(910,866)"/>
<path d="M0 0 C2 1 2 1 2 1 Z " fill="#FFFF00" transform="translate(363,854)"/>
<path d="M0 0 C2 1 2 1 2 1 Z " fill="#FFFF00" transform="translate(1121,843)"/>
<path d="" fill="#FFFF00" transform="translate(0,0)"/>
<path d="M0 0 C2 1 2 1 2 1 Z " fill="#FFFF00" transform="translate(1136,741)"/>
<path d="M0 0 C2 1 2 1 2 1 Z " fill="#FFFF00" transform="translate(883,722)"/>
<path d="M0 0 C2 1 2 1 2 1 Z " fill="#FFFF00" transform="translate(172,684)"/>
<path d="M0 0 C2 1 2 1 2 1 Z " fill="#FFFF00" transform="translate(460,669)"/>
<path d="M0 0 C2 1 2 1 2 1 Z " fill="#FFFF00" transform="translate(418,669)"/>
<path d="" fill="#FFFF00" transform="translate(0,0)"/>
<path d="" fill="#FFFF00" transform="translate(0,0)"/>
<path d="" fill="#FFFF00" transform="translate(0,0)"/>
<path d="M0 0 C2 1 2 1 2 1 Z " fill="#FFFF00" transform="translate(890,410)"/>
<path d="M0 0 C2 1 2 1 2 1 Z " fill="#FFFF00" transform="translate(740,410)"/>
<path d="M0 0 C2 1 2 1 2 1 Z " fill="#FFFF00" transform="translate(426,406)"/>
<path d="" fill="#FFFF00" transform="translate(0,0)"/>
<path d="" fill="#FFFF00" transform="translate(0,0)"/>
<path d="" fill="#FFFF00" transform="translate(0,0)"/>
<path d="" fill="#FFFF00" transform="translate(0,0)"/>
<path d="" fill="#FFFF00" transform="translate(0,0)"/>
<path d="" fill="#FFFF00" transform="translate(0,0)"/>
<path d="" fill="#FFFF00" transform="translate(0,0)"/>
<path d="" fill="#FFFF00" transform="translate(0,0)"/>
<path d="" fill="#FFFF00" transform="translate(0,0)"/>
<path d="" fill="#FFFF00" transform="translate(0,0)"/>
<path d="" fill="#FFFF00" transform="translate(0,0)"/>
<path d="" fill="#FFFF00" transform="translate(0,0)"/>
<path d="" fill="#FFFF00" transform="translate(0,0)"/>
<path d="" fill="#FFFF00" transform="translate(0,0)"/>
<path d="" fill="#FFFF00" transform="translate(0,0)"/>
<path d="" fill="#FFFF00" transform="translate(0,0)"/>
<path d="" fill="#FFFF00" transform="translate(0,0)"/>
<path d="" fill="#FFFF00" transform="translate(0,0)"/>
<path d="" fill="#FFFF00" transform="translate(0,0)"/>
<path d="" fill="#FFFF00" transform="translate(0,0)"/>
<path d="" fill="#FFFF00" transform="translate(0,0)"/>
<path d="" fill="#FFFF00" transform="translate(0,0)"/>
<path d="" fill="#FFFF00" transform="translate(0,0)"/>
<path d="" fill="#FFFF00" transform="translate(0,0)"/>
<path d="" fill="#FFFF00" transform="translate(0,0)"/>
<path d="" fill="#FFFF00" transform="translate(0,0)"/>
<path d="" fill="#FFFF00" transform="translate(0,0)"/>
<path d="" fill="#FFFF00" transform="translate(0,0)"/>
<path d="" fill="#FFFF00" transform="translate(0,0)"/>
<path d="" fill="#FFFF00" transform="translate(0,0)"/>
<path d="" fill="#FFFF00" transform="translate(0,0)"/>
<path d="" fill="#FFFF00" transform="translate(0,0)"/>
<path d="" fill="#FFFF00" transform="translate(0,0)"/>
<path d="" fill="#FFFF00" transform="translate(0,0)"/>
<path d="" fill="#FFFF00" transform="translate(0,0)"/>
<path d="" fill="#FFFF00" transform="translate(0,0)"/>
<path d="" fill="#FFFF00" transform="translate(0,0)"/>
<path d="" fill="#FFFF00" transform="translate(0,0)"/>
<path d="" fill="#FFFF00" transform="translate(0,0)"/>
<path d="" fill="#FFFF00" transform="translate(0,0)"/>
<path d="" fill="#FFFF00" transform="translate(0,0)"/>
<path d="" fill="#FFFF00" transform="translate(0,0)"/>
<path d="" fill="#FFFF00" transform="translate(0,0)"/>
<path d="" fill="#FFFF00" transform="translate(0,0)"/>
<path d="" fill="#FFFF00" transform="translate(0,0)"/>
<path d="" fill="#FFFF00" transform="translate(0,0)"/>
<path d="" fill="#FFFF00" transform="translate(0,0)"/>
<path d="" fill="#FFFF00" transform="translate(0,0)"/>
<path d="" fill="#FFFF00" transform="translate(0,0)"/>
<path d="" fill="#FFFF00" transform="translate(0,0)"/>
<path d="" fill="#FFFF00" transform="translate(0,0)"/>
<path d="" fill="#FFFF00" transform="translate(0,0)"/>
<path d="" fill="#FFFF00" transform="translate(0,0)"/>
<path d="" fill="#FFFF00" transform="translate(0,0)"/>
<path d="" fill="#FFFF00" transform="translate(0,0)"/>
<path d="" fill="#FFFF00" transform="translate(0,0)"/>
<path d="" fill="#FFFF00" transform="translate(0,0)"/>
<path d="" fill="#FFFF00" transform="translate(0,0)"/>
<path d="" fill="#FFFF00" transform="translate(0,0)"/>
<path d="" fill="#FFFF00" transform="translate(0,0)"/>
<path d="" fill="#FFFF00" transform="translate(0,0)"/>
<path d="" fill="#FFFF00" transform="translate(0,0)"/>
<path d="" fill="#FFFF00" transform="translate(0,0)"/>
<path d="" fill="#FFFF00" transform="translate(0,0)"/>
<path d="" fill="#FFFF00" transform="translate(0,0)"/>
<path d="" fill="#FFFF00" transform="translate(0,0)"/>
<path d="" fill="#FFFF00" transform="translate(0,0)"/>
<path d="" fill="#FFFF00" transform="translate(0,0)"/>
<path d="" fill="#FFFF00" transform="translate(0,0)"/>
</svg>
